<svg xmlns="http://www.w3.org/2000/svg" xmlns:xlink="http://www.w3.org/1999/xlink" width="500" zoomAndPan="magnify" viewBox="0 0 375 374.999991" height="500" preserveAspectRatio="xMidYMid meet" version="1.0"><defs><clipPath id="7193bc1615"><path d="M 0 14.53125 L 347 14.53125 L 347 360.28125 L 0 360.28125 Z M 0 14.53125 " clip-rule="nonzero"/></clipPath></defs><path fill="#ffffff" d="M 129.914062 243.53125 L 167.871094 286.722656 L 169.21875 288.25 L 374.136719 108.3125 L 334.820312 63.59375 L 173.992188 204.824219 L 117.902344 141.039062 L 73.8125 179.746094 Z M 129.914062 243.53125 " fill-opacity="1" fill-rule="nonzero"/><g clip-path="url(#7193bc1615)"><path fill="#ffffff" d="M 303.53125 317.0625 L 44.082031 317.0625 L 44.082031 57.75 L 303.53125 57.75 L 303.53125 65.148438 L 339.425781 33.710938 C 331.667969 22.148438 318.503906 14.53125 303.53125 14.53125 L 44.082031 14.53125 C 20.199219 14.53125 0.839844 33.882812 0.839844 57.75 L 0.839844 317.0625 C 0.839844 340.925781 20.199219 360.28125 44.082031 360.28125 L 303.53125 360.28125 C 327.417969 360.28125 346.773438 340.925781 346.773438 317.0625 L 346.773438 157.90625 L 303.53125 195.878906 Z M 303.53125 317.0625 " fill-opacity="1" fill-rule="nonzero"/></g></svg>