<svg id="Capa_1" data-name="Capa 1" xmlns="http://www.w3.org/2000/svg" viewBox="0 0 383.92 383.85"><defs><style>.cls-1 {fill: none;}</style></defs><title>cita</title><path class="cls-1" d="M490.75,613.61H106.83V229.76H490.75V613.61ZM211.08,277.69c-10.62,0-21.25,0-31.87,0a39.79,39.79,0,0,0-23.52,7.47c-17,12.16-18.18,29.71-16.5,48.3H458.68c0-5.31.08-10.3,0-15.29-0.42-23.47-17.63-40.4-41.13-40.48-10.37,0-20.75,0-31.12,0,0.07-2.72.31-5.45,0.19-8.16a7.66,7.66,0,0,0-7.85-7.71,7.84,7.84,0,0,0-8,7.69c-0.15,2.72,0,5.46,0,8.19H307c-0.07-2.6,0-5.21-.22-7.81-0.34-4.9-3.55-8.06-8-8.06s-7.68,3.18-8,8.06c-0.18,2.59-.15,5.2-0.22,7.81H226.7c0-2.85.17-5.72,0-8.56a7.8,7.8,0,0,0-7.93-7.32,7.58,7.58,0,0,0-7.82,7.34C210.76,272,211,274.84,211.08,277.69Zm247.35,72.16H139c-0.07,1.17-.17,2.14-0.17,3.12q0,73.86,0,147.72c0,19.46,13.58,32.82,33.18,32.87,33,0.08,66,0,99,0,1,0,2.08-.16,3.22-0.26-22.53-58.73,8.68-110.84,46.69-131,20.89-11.09,43-15.14,66.35-11.28,30.15,5,53.52,20.78,71.17,46.57V349.85ZM371,405.71a87.93,87.93,0,1,0,87.68,88.17A87.8,87.8,0,0,0,371,405.71Z" transform="translate(-106.83 -229.76)"/><path d="M458.43,349.85v87.74c-17.65-25.79-41-41.57-71.17-46.57-23.33-3.86-45.45.19-66.35,11.28-38,20.17-69.23,72.27-46.69,131-1.14.1-2.18,0.26-3.22,0.26-33,0-66,.07-99,0-19.6,0-33.14-13.4-33.18-32.87q-0.14-73.86,0-147.72c0-1,.11-1.95.17-3.12H458.43ZM214.76,493.69c6.37,0,12.73.05,19.1,0,5.77-.06,8.76-3,8.8-8.81q0.12-15.16,0-30.33c0-5.74-3.11-8.79-8.83-8.82q-19.1-.09-38.19,0c-5.71,0-8.75,3.09-8.8,8.85q-0.11,15.16,0,30.33c0,5.78,3,8.72,8.83,8.78C202,493.75,208.4,493.69,214.76,493.69Zm-5.14-91.82c-1.67-1.9-3-3.53-4.47-5.07s-3.09-3.27-4.77-4.77a8,8,0,0,0-11.17-.05,7.82,7.82,0,0,0-.27,11.12c5.33,5.61,10.8,11.09,16.43,16.4,3.49,3.29,8.42,3.12,11.3-.59q12.61-16.28,24.72-32.94a7.69,7.69,0,0,0-1.95-10.67c-3.42-2.52-7.75-2-10.78,1.3-0.67.73-1.25,1.56-1.85,2.36Z" transform="translate(-106.83 -229.76)"/><path d="M386.42,277.69c10.37,0,20.75,0,31.12,0,23.5,0.08,40.71,17,41.13,40.48,0.09,5,0,10,0,15.29H139.19c-1.68-18.6-.52-36.14,16.5-48.3a39.79,39.79,0,0,1,23.52-7.47c10.62,0,21.25,0,31.87,0l-0.12-.1c0,7.6-.15,15.2-0.13,22.79,0,5.67,3.21,9.36,7.93,9.35s8-3.72,8-9.35c0-7.6,0-15.2.06-22.8l-0.1.11h63.81l-0.08-.11c0.09,7.6.2,15.2,0.25,22.8,0,3.62,1.1,6.67,4.47,8.43,5.55,2.89,11.47-1.17,11.63-8.05,0.19-7.72.2-15.45,0.29-23.17l-0.08.11H370.8l-0.1-.11c0,8,0,16,.09,23.92a8,8,0,0,0,7.95,8.22c4.35,0,7.84-3.44,7.89-8.23,0.09-8,0-15.94-.09-23.91Z" transform="translate(-106.83 -229.76)"/><path d="M371,405.71a87.93,87.93,0,1,1-88.16,87.68A87.8,87.8,0,0,1,371,405.71ZM370.77,530.8c2.34,4.79,3.78,8.72,6,12.1,2.87,4.29,5.83,8.87,9.8,12,6.71,5.31,16,3.06,20.37-4.34a28,28,0,0,0,3.47-9.39c1.1-6.76,1.74-13.62,2.29-20.45,0.48-6,1.67-11.26,6.31-15.83a25.35,25.35,0,0,0,6.18-11.28,51.76,51.76,0,0,0-1.17-29.9C418.48,447,403.44,441,387.88,449.28a118.42,118.42,0,0,0-12.29,7.87c-3.28,2.31-6.13,2.4-9.56.09-5.16-3.47-10.37-7.09-16-9.52-12.79-5.5-25.79-.45-31,12.44a67.65,67.65,0,0,0-4.15,20.34c-0.56,8.26.14,17,6.46,23.15,5.65,5.51,6.94,11.87,7.59,19.16,0.75,8.28,1.5,16.81,4.11,24.61,3.86,11.54,16.44,13.82,24.94,5.08,3-3.07,5.12-7,7.33-10.75C367.2,538.57,368.64,535.14,370.77,530.8Z" transform="translate(-106.83 -229.76)"/><path d="M290.51,277.69c0.07-2.6,0-5.21.22-7.81,0.33-4.88,3.55-8.06,8-8.06s7.67,3.17,8,8.06c0.18,2.59.16,5.2,0.22,7.81l0.08-.11H290.43Z" transform="translate(-106.83 -229.76)"/><path d="M211.08,277.69c-0.07-2.84-.32-5.7-0.16-8.53a7.58,7.58,0,0,1,7.82-7.34,7.8,7.8,0,0,1,7.93,7.32c0.21,2.84,0,5.7,0,8.56l0.1-.11H211Z" transform="translate(-106.83 -229.76)"/><path d="M370.8,277.69c0-2.73-.15-5.47,0-8.19a7.84,7.84,0,0,1,8-7.69,7.66,7.66,0,0,1,7.85,7.71c0.12,2.71-.11,5.44-0.19,8.16l0.12-.1H370.7Z" transform="translate(-106.83 -229.76)"/><path class="cls-1" d="M214.76,493.69c-6.37,0-12.73.05-19.1,0-5.79-.06-8.78-3-8.83-8.78q-0.12-15.16,0-30.33c0-5.76,3.09-8.82,8.8-8.85q19.1-.09,38.19,0c5.73,0,8.79,3.07,8.83,8.82q0.12,15.16,0,30.33c0,5.8-3,8.75-8.8,8.81C227.49,493.75,221.13,493.69,214.76,493.69Zm11.75-16.06V462H203v15.61h23.52Z" transform="translate(-106.83 -229.76)"/><path class="cls-1" d="M209.62,401.88L226.82,379c0.6-.8,1.17-1.62,1.85-2.36,3-3.31,7.36-3.82,10.78-1.3A7.69,7.69,0,0,1,241.39,386q-12.13,16.64-24.72,32.94c-2.87,3.71-7.81,3.88-11.3.59-5.63-5.31-11.1-10.8-16.43-16.4a7.82,7.82,0,0,1,.27-11.12,8,8,0,0,1,11.17.05c1.67,1.49,3.23,3.13,4.77,4.77S208,400,209.62,401.88Z" transform="translate(-106.83 -229.76)"/><path class="cls-1" d="M290.43,277.58h16.64c-0.09,7.72-.1,15.45-0.29,23.17-0.17,6.88-6.08,10.94-11.63,8.05-3.38-1.76-4.45-4.81-4.47-8.43C290.63,292.78,290.52,285.18,290.43,277.58Z" transform="translate(-106.83 -229.76)"/><path class="cls-1" d="M211,277.59H226.8c0,7.6,0,15.2-.06,22.8,0,5.63-3.24,9.34-8,9.35s-7.91-3.68-7.93-9.35C210.81,292.78,210.91,285.19,211,277.59Z" transform="translate(-106.83 -229.76)"/><path class="cls-1" d="M370.7,277.58h15.84c0,8,.18,15.94.09,23.91-0.05,4.78-3.54,8.24-7.89,8.23a8,8,0,0,1-7.95-8.22C370.66,293.53,370.72,285.56,370.7,277.58Z" transform="translate(-106.83 -229.76)"/><path class="cls-1" d="M370.77,530.8c-2.13,4.33-3.56,7.76-5.44,10.93-2.21,3.73-4.35,7.69-7.33,10.75-8.5,8.74-21.09,6.46-24.94-5.08-2.61-7.8-3.36-16.33-4.11-24.61-0.66-7.29-1.95-13.65-7.59-19.16-6.31-6.16-7-14.89-6.46-23.15A67.65,67.65,0,0,1,319,460.15c5.17-12.88,18.17-17.93,31-12.44,5.67,2.44,10.88,6.06,16,9.52,3.43,2.31,6.27,2.22,9.56-.09a118.42,118.42,0,0,1,12.29-7.87c15.56-8.29,30.6-2.26,36.19,14.43a51.76,51.76,0,0,1,1.17,29.9,25.35,25.35,0,0,1-6.18,11.28c-4.64,4.57-5.83,9.85-6.31,15.83-0.55,6.84-1.19,13.69-2.29,20.45a28,28,0,0,1-3.47,9.39c-4.33,7.4-13.66,9.65-20.37,4.34-4-3.14-6.92-7.72-9.8-12C374.55,539.52,373.11,535.59,370.77,530.8Zm-23.72,9.32,1.13,0.1c1.3-2.51,2.55-5.05,3.91-7.53,2.29-4.14,4.22-8.57,7.08-12.27,6.42-8.29,16.9-8.23,23.32,0,2.57,3.31,4.32,7.26,6.35,11,1.58,2.9,3,5.88,4.52,8.82l1-.14a43.56,43.56,0,0,0,1.14-4.9c0.6-5.08,1.2-10.17,1.55-15.27,0.65-9.55,2.4-18.5,10-25.4a11,11,0,0,0,3.2-6.95,73.65,73.65,0,0,0-.65-17.09c-1.66-8.86-7.43-11.13-15.19-6.57-4,2.34-7.71,5.07-11.61,7.55-8.11,5.16-16.21,5.05-24.24-.19-2.93-1.91-5.81-3.89-8.73-5.81-10.55-6.93-16.57-4.52-18.44,7.91-1.35,9-1.57,17.91,6.36,24.89,4,3.49,5.39,8.63,6,13.82,0.62,5.46,1,10.94,1.59,16.4C345.76,532.39,346.46,536.25,347.05,540.12Z" transform="translate(-106.83 -229.76)"/><path d="M226.51,477.63H203V462h23.52v15.61Z" transform="translate(-106.83 -229.76)"/><path d="M347.05,540.12c-0.59-3.87-1.29-7.73-1.74-11.61-0.62-5.46-1-10.94-1.59-16.4-0.59-5.19-2-10.33-6-13.82-7.93-7-7.71-15.88-6.36-24.89,1.87-12.43,7.89-14.84,18.44-7.91,2.92,1.92,5.8,3.9,8.73,5.81,8,5.25,16.14,5.35,24.24.19,3.89-2.48,7.63-5.22,11.61-7.55,7.77-4.56,13.53-2.29,15.19,6.57a73.65,73.65,0,0,1,.65,17.09,11,11,0,0,1-3.2,6.95c-7.62,6.9-9.36,15.86-10,25.4-0.35,5.1-.95,10.19-1.55,15.27a43.56,43.56,0,0,1-1.14,4.9l-1,.14c-1.5-2.94-2.93-5.92-4.52-8.82-2-3.71-3.78-7.66-6.35-11-6.43-8.28-16.9-8.33-23.32,0-2.87,3.7-4.79,8.13-7.08,12.27-1.37,2.47-2.61,5-3.91,7.53Z" transform="translate(-106.83 -229.76)"/></svg>