<svg id="Capa_1" data-name="Capa 1" xmlns="http://www.w3.org/2000/svg" viewBox="0 0 383.89 383.94"><defs><style>.cls-1 {fill: none;}</style></defs><title>configuracion</title><path class="cls-1" d="M106.76,613.64q0-191.94,0-383.94H490.65V613.64H106.76Zm291.1-48.52a20.16,20.16,0,0,0,12.22-5.92c8.72-8.78,17.52-17.48,26.23-26.27,6.14-6.19,7-13.57,2.47-21.17-4.27-7.2-8.71-14.29-12.81-21.58a7.28,7.28,0,0,1-.43-5.4c2.22-6.09,5-12,7.28-18a5.55,5.55,0,0,1,4.49-3.79q12.2-2.9,24.34-6c8.34-2.14,13-7.92,13.1-16.45q0.17-18.75,0-37.5c-0.07-8.6-4.65-14.37-13-16.54s-16.46-4.18-24.71-6.15a5.28,5.28,0,0,1-4.19-3.61c-2.27-5.94-4.74-11.81-7.31-17.63a5.9,5.9,0,0,1,.41-6.23c4.33-6.86,8.42-13.88,12.57-20.85,4.88-8.22,4-15.29-2.67-22q-12.69-12.77-25.47-25.44c-6.59-6.56-13.78-7.46-21.73-2.74-7.08,4.21-14.19,8.4-21.16,12.78a5.61,5.61,0,0,1-5.89.43c-5.94-2.61-11.93-5.12-18-7.44a5.3,5.3,0,0,1-3.58-4.23c-1.94-8.13-4-16.24-6-24.34-2.16-8.55-7.94-13.23-16.67-13.29q-18.56-.13-37.12,0c-8.78.05-14.62,4.71-16.76,13.19-2,8.11-4.11,16.21-6,24.34a5.59,5.59,0,0,1-3.85,4.45c-5.94,2.26-11.81,4.75-17.63,7.31a5.62,5.62,0,0,1-5.9-.4c-7-4.37-14.1-8.54-21.18-12.75-8-4.76-15.2-3.9-21.74,2.61q-12.88,12.83-25.7,25.73c-6.49,6.53-7.33,13.73-2.56,21.74,4.22,7.08,8.59,14.07,12.61,21.26a7.29,7.29,0,0,1,.44,5.4c-2.26,6.21-4.81,12.32-7.57,18.33a6.78,6.78,0,0,1-3.85,3.32c-8.18,2.26-16.45,4.19-24.68,6.24s-13.05,7.93-13.12,16.43q-0.15,18.75,0,37.5c0.06,8.71,4.85,14.52,13.35,16.62,8.11,2,16.21,4.09,24.34,6a5.31,5.31,0,0,1,4.2,3.62q3.41,8.91,7.32,17.63a6.22,6.22,0,0,1-.59,6.56c-4.31,6.87-8.43,13.87-12.57,20.85-4.64,7.82-3.77,15.08,2.57,21.45Q174.17,546,187.05,558.8c6.59,6.57,13.79,7.5,21.72,2.8,7-4.14,14-8.25,20.86-12.56a6.24,6.24,0,0,1,6.57-.59c5.8,2.6,11.8,4.79,17.55,7.49a7.28,7.28,0,0,1,3.52,4.11c2.28,8.17,4.17,16.45,6.26,24.67,2.05,8.07,7.84,12.83,16.2,12.93q18.93,0.23,37.87,0c8.57-.09,14.29-4.82,16.4-13.16,2.05-8.1,4.11-16.21,6-24.35a5.54,5.54,0,0,1,3.86-4.43c6.07-2.29,12-5.06,18-7.28a7.28,7.28,0,0,1,5.4.44c7.29,4.1,14.32,8.66,21.6,12.76C391.69,563.2,394.88,564,397.87,565.12Z" transform="translate(-106.76 -229.7)"/><path d="M397.87,565.12c-3-1.13-6.18-1.91-8.93-3.47-7.28-4.11-14.31-8.67-21.6-12.76a7.28,7.28,0,0,0-5.4-.44c-6.09,2.22-12,5-18,7.28a5.54,5.54,0,0,0-3.86,4.43c-1.92,8.14-4,16.24-6,24.35-2.11,8.34-7.84,13.07-16.4,13.16q-18.93.2-37.87,0c-8.36-.1-14.15-4.86-16.2-12.93-2.09-8.22-4-16.5-6.26-24.67a7.28,7.28,0,0,0-3.52-4.11c-5.75-2.7-11.75-4.88-17.55-7.49a6.24,6.24,0,0,0-6.57.59c-6.87,4.31-13.87,8.42-20.86,12.56-7.94,4.7-15.13,3.77-21.72-2.8Q174.17,546,161.34,533.08c-6.34-6.37-7.22-13.63-2.57-21.45,4.14-7,8.26-14,12.57-20.85a6.22,6.22,0,0,0,.59-6.56q-3.92-8.7-7.32-17.63a5.31,5.31,0,0,0-4.2-3.62c-8.13-1.95-16.22-4-24.34-6-8.5-2.1-13.29-7.91-13.35-16.62q-0.14-18.75,0-37.5c0.07-8.5,4.88-14.38,13.12-16.43s16.51-4,24.68-6.24a6.78,6.78,0,0,0,3.85-3.32c2.76-6,5.3-12.12,7.57-18.33a7.29,7.29,0,0,0-.44-5.4c-4-7.19-8.39-14.18-12.61-21.26-4.78-8-3.94-15.21,2.56-21.74q12.83-12.89,25.7-25.73c6.54-6.51,13.73-7.37,21.74-2.61,7.09,4.21,14.2,8.38,21.18,12.75a5.62,5.62,0,0,0,5.9.4c5.82-2.56,11.68-5.05,17.63-7.31a5.59,5.59,0,0,0,3.85-4.45c1.92-8.14,4-16.24,6-24.34,2.14-8.48,8-13.13,16.76-13.19q18.56-.11,37.12,0c8.72,0.06,14.51,4.75,16.67,13.29,2,8.11,4.1,16.21,6,24.34a5.3,5.3,0,0,0,3.58,4.23c6.06,2.32,12,4.83,18,7.44a5.61,5.61,0,0,0,5.89-.43c7-4.38,14.08-8.57,21.16-12.78,8-4.73,15.14-3.82,21.73,2.74q12.76,12.69,25.47,25.44c6.71,6.75,7.55,13.83,2.67,22-4.14,7-8.23,14-12.57,20.85a5.9,5.9,0,0,0-.41,6.23c2.57,5.82,5,11.69,7.31,17.63a5.28,5.28,0,0,0,4.19,3.61q12.38,3,24.71,6.15c8.33,2.17,12.91,7.94,13,16.54q0.15,18.75,0,37.5c-0.08,8.53-4.76,14.31-13.1,16.45q-12.14,3.12-24.34,6a5.55,5.55,0,0,0-4.49,3.79c-2.27,6.07-5.06,12-7.28,18a7.28,7.28,0,0,0,.43,5.4c4.09,7.29,8.54,14.38,12.81,21.58,4.51,7.6,3.67,15-2.47,21.17-8.71,8.79-17.51,17.49-26.23,26.27A20.16,20.16,0,0,1,397.87,565.12ZM301,501.63c44.8-1.93,79.75-38.94,77.8-82.38-2-44.78-38.93-79.39-82.59-77.59-44.45,1.83-78.52,38-77.34,82C220.07,469.47,257.81,502.59,301,501.63Z" transform="translate(-106.76 -229.7)"/><path class="cls-1" d="M301,501.63c-43.15,1-80.89-32.16-82.13-78-1.19-44,32.89-80.15,77.34-82,43.66-1.8,80.57,32.81,82.59,77.59C380.71,462.69,345.76,499.7,301,501.63Z" transform="translate(-106.76 -229.7)"/></svg>