<svg id="Capa_1" data-name="Capa 1" xmlns="http://www.w3.org/2000/svg" viewBox="0 0 383.92 383.85"><defs><style>.cls-1 {fill: none;}</style></defs><title>informe-medico</title><path class="cls-1" d="M106.75,229.67H490.67V613.52H106.75V229.67Zm143.82,48H247c-17,0-34,0-51,0-15,0-25.25,10.12-25.26,25.16q-0.08,126.91,0,253.82c0,14.85,10.16,24.91,25.06,24.92q102.92,0.08,205.83,0c15.12,0,25.17-10,25.18-25.19q0.07-126.72,0-253.45c0-15.28-10.23-25.25-25.53-25.28q-25.31,0-50.61,0c-1.21,0-2.41.11-3.62,0.17v23.83h12.23c7.81,0,9.06.82,12,7.89a4.1,4.1,0,0,0,.73.13c4.37,0,8.75,0,13.12,0,6.79,0.06,9.6,2.84,9.6,9.58q0,110.41,0,220.83c0,6.37-3,9.56-9.34,9.56q-86.61.05-173.21,0c-6.38,0-9.43-3.13-9.43-9.47q0-110.6,0-221.2c0-6.28,2.9-9.21,9.12-9.29,4.85-.06,9.71,0,14.45,0,2.27-6.72,4.16-8.06,11.06-8.07h13.18v-24ZM378.52,533.37V325.91h-7.79c0,1.63.05,3,0,4.36-0.45,10.47-8.8,19.22-19.25,19.28q-52.67.27-105.35,0A19.47,19.47,0,0,1,227.38,334a75.2,75.2,0,0,1-1-8.2h-7.51V533.37h159.6ZM330.65,285.56c-2.62,0-4.85.07-7.07,0-5.74-.2-8.66-3.14-8.87-8.9-0.09-2.49.06-5-.1-7.48-0.26-4.2-2.86-7.18-7-7.38-5.85-.28-11.73-0.29-17.58,0-4.34.2-6.92,3.21-7.15,7.65-0.13,2.49,0,5-.08,7.48-0.25,5.5-3.22,8.42-8.75,8.63-2.32.09-4.64,0-7.1,0v23.7h63.72V285.56Zm-88,32.17c0,3.14,0,5.86,0,8.58,0,6.45.94,7.39,7.33,7.39h97.45c1.12,0,2.48.34,3.32-.16,1.46-.88,3.54-2.18,3.7-3.5,0.49-4,.18-8.1.18-12.3h-7.48c-2.52,6.75-4.18,7.91-11.33,7.91H261.64c-7.17,0-8.86-1.17-11.33-7.91h-7.63Z" transform="translate(-106.75 -229.67)"/><path d="M250.57,277.64v24H237.39c-6.91,0-8.79,1.35-11.06,8.07-4.74,0-9.6,0-14.45,0-6.22.08-9.12,3-9.12,9.29q0,110.6,0,221.2c0,6.34,3,9.46,9.43,9.47q86.61,0,173.21,0c6.31,0,9.34-3.19,9.34-9.56q0-110.41,0-220.83c0-6.74-2.82-9.52-9.6-9.58-4.37,0-8.75,0-13.12,0a3.92,3.92,0,0,1-.73-0.14c-3-7.06-4.23-7.88-12-7.88H347V277.81c1.2-.06,2.41-0.17,3.62-0.17q25.31,0,50.61,0c15.31,0,25.52,10,25.53,25.28q0.08,126.72,0,253.45c0,15.15-10.06,25.18-25.18,25.19q-102.92.07-205.83,0c-14.89,0-25-10.07-25.06-24.92q-0.09-126.91,0-253.82c0-15,10.26-25.13,25.26-25.16,17,0,34,0,51,0h3.61Z" transform="translate(-106.75 -229.67)"/><path d="M378.52,533.37H218.91V325.84h7.51a75.2,75.2,0,0,0,1,8.2,19.47,19.47,0,0,0,18.73,15.52q52.67,0.2,105.35,0c10.46-.05,18.81-8.81,19.25-19.28,0.06-1.36,0-2.73,0-4.36h7.79V533.37Zm-80-88.88c1.42,2.5,2.23,4,3.12,5.5,2.71,4.47,5.14,9.15,8.27,13.3a15.54,15.54,0,0,0,12.63,6.34c8,0.08,14-5.38,15.81-15.18,1.2-6.36,1.75-12.86,2.33-19.32,0.47-5.23,1.39-9.91,5.92-13.54,4.79-3.84,7-9.45,7.47-15.46a78.28,78.28,0,0,0,0-15c-2.52-22.4-20.72-31.8-40.51-21.08a77.51,77.51,0,0,0-8.61,5.29c-4.28,3.1-8.13,3.14-12.64.13a74.54,74.54,0,0,0-15.09-8.17c-14.32-5.33-27.73,1.44-32.41,16a42.72,42.72,0,0,0-2,9.88c-0.76,10.39-.67,20.76,7.82,28.52a15.8,15.8,0,0,1,5.62,12.09,44,44,0,0,0,.6,7.09c1.14,6.36,1.6,13,3.88,19,4.1,10.69,16,13.15,24.49,5.39,3.06-2.8,5.29-6.57,7.57-10.11C294.79,452,296.34,448.63,298.56,444.48Zm0.08,33.22c-15.61,0-31.22,0-46.82,0-5.43,0-9,3.21-9.07,7.84,0,4.79,3.64,8.07,9.27,8.07q46.64,0,93.27,0a16,16,0,0,0,2.62-.11,7.94,7.94,0,0,0,5.95-11.4c-1.73-3.43-4.72-4.46-8.39-4.45C329.86,477.74,314.25,477.7,298.65,477.71Zm0.11,39.93c7.61,0,15.22,0,22.83,0,5.43,0,9-3.14,9.15-7.81s-3.55-8.08-9.18-8.1q-22.83-.07-45.67,0c-5.47,0-9,3.12-9.14,7.75-0.11,4.79,3.58,8.12,9.17,8.16C283.54,517.67,291.15,517.64,298.76,517.64Z" transform="translate(-106.75 -229.67)"/><path d="M330.65,285.56v23.69H266.93v-23.7c2.46,0,4.79.07,7.1,0,5.53-.21,8.5-3.14,8.75-8.63,0.11-2.49,0-5,.08-7.48,0.23-4.44,2.81-7.45,7.15-7.65,5.85-.27,11.73-0.27,17.58,0,4.16,0.2,6.75,3.18,7,7.38,0.16,2.49,0,5,.1,7.48,0.2,5.76,3.13,8.7,8.87,8.9C325.8,285.62,328,285.56,330.65,285.56Z" transform="translate(-106.75 -229.67)"/><path d="M242.69,317.73h7.63c2.47,6.74,4.16,7.91,11.33,7.91h74.21c7.15,0,8.81-1.16,11.33-7.91h7.48c0,4.2.31,8.3-.18,12.3-0.16,1.33-2.24,2.62-3.7,3.5-0.84.5-2.19,0.16-3.32,0.16H250c-6.39,0-7.32-.95-7.33-7.39C242.68,323.59,242.69,320.87,242.69,317.73Z" transform="translate(-106.75 -229.67)"/><path class="cls-1" d="M298.56,444.48c-2.22,4.14-3.77,7.54-5.77,10.65-2.28,3.54-4.52,7.32-7.57,10.11-8.48,7.76-20.4,5.29-24.49-5.39-2.28-5.94-2.74-12.6-3.88-19a44,44,0,0,1-.6-7.09,15.8,15.8,0,0,0-5.62-12.09c-8.49-7.76-8.58-18.13-7.82-28.52a42.72,42.72,0,0,1,2-9.88c4.68-14.53,18.1-21.3,32.41-16a74.54,74.54,0,0,1,15.09,8.17c4.51,3,8.37,3,12.64-.13a77.51,77.51,0,0,1,8.61-5.29c19.79-10.72,38-1.32,40.51,21.08a78.28,78.28,0,0,1,0,15c-0.48,6-2.68,11.62-7.47,15.46-4.52,3.62-5.45,8.31-5.92,13.54-0.58,6.46-1.13,13-2.33,19.32-1.85,9.8-7.82,15.26-15.81,15.18A15.54,15.54,0,0,1,310,463.28c-3.13-4.15-5.56-8.84-8.27-13.3C300.79,448.51,300,447,298.56,444.48Zm-24.09,8.05,1.45,0.14c1.51-2.69,2.93-5.43,4.54-8.06,2.14-3.5,4-7.26,6.72-10.3,7.08-8,16.2-7.93,23.2.23,2.56,3,4.36,6.65,6.43,10.05,1.58,2.59,3,5.27,4.93,8.62a24.91,24.91,0,0,0,1.06-3.39c0.76-6.19,1.61-12.38,2.14-18.59,0.69-8,3.1-15.07,9.6-20.38a9.92,9.92,0,0,0,3.12-4.93,31.83,31.83,0,0,0-.88-18.44c-1.45-4.21-4.55-6.29-9-5.7a23.88,23.88,0,0,0-7.67,2.63c-3.31,1.72-6.34,4-9.54,5.92-7.85,4.81-15.79,4.9-23.73.24-2.8-1.64-5.5-3.44-8.29-5.09a38,38,0,0,0-5.6-3c-6.55-2.51-11.66-.13-13.16,6.64-1,4.32-.95,8.88-1.05,13.34-0.09,3.83,1.66,6.86,4.66,9.37a21.27,21.27,0,0,1,7.74,13.7c0.5,3.58.91,7.18,1.35,10.77Q273.5,444.43,274.47,452.54Z" transform="translate(-106.75 -229.67)"/><path class="cls-1" d="M298.65,477.71c15.61,0,31.22,0,46.82,0,3.67,0,6.66,1,8.39,4.45a7.94,7.94,0,0,1-5.95,11.4,16,16,0,0,1-2.62.11q-46.64,0-93.27,0c-5.63,0-9.32-3.28-9.27-8.07,0-4.63,3.63-7.82,9.07-7.84C267.43,477.68,283,477.71,298.65,477.71Z" transform="translate(-106.75 -229.67)"/><path class="cls-1" d="M298.76,517.64c-7.61,0-15.22,0-22.83,0-5.59,0-9.28-3.36-9.17-8.16,0.11-4.63,3.67-7.73,9.14-7.75q22.83-.07,45.67,0c5.62,0,9.31,3.36,9.18,8.1s-3.72,7.78-9.15,7.81C314,517.67,306.37,517.64,298.76,517.64Z" transform="translate(-106.75 -229.67)"/><path d="M274.47,452.54q-1-8.1-2-16.2c-0.44-3.59-.85-7.18-1.35-10.77a21.27,21.27,0,0,0-7.74-13.7c-3-2.51-4.75-5.54-4.66-9.37,0.11-4.46.1-9,1.05-13.34,1.5-6.77,6.61-9.15,13.16-6.64a38,38,0,0,1,5.6,3c2.79,1.65,5.5,3.45,8.29,5.09,7.95,4.66,15.88,4.57,23.73-.24,3.19-2,6.23-4.19,9.54-5.92a23.88,23.88,0,0,1,7.67-2.63c4.42-.59,7.52,1.5,9,5.7a31.83,31.83,0,0,1,.88,18.44,9.92,9.92,0,0,1-3.12,4.93c-6.5,5.31-8.91,12.35-9.6,20.38-0.53,6.21-1.38,12.4-2.14,18.59a24.91,24.91,0,0,1-1.06,3.39c-1.91-3.35-3.36-6-4.93-8.62-2.07-3.4-3.86-7.06-6.43-10.05-7-8.16-16.11-8.26-23.2-.23-2.68,3-4.58,6.8-6.72,10.3-1.61,2.63-3,5.37-4.54,8.06Z" transform="translate(-106.75 -229.67)"/></svg>