<svg id="Capa_1" data-name="Capa 1" xmlns="http://www.w3.org/2000/svg" viewBox="0 0 383.84 383.92"><defs><style>.cls-1 {fill: none;}</style></defs><title>dentista</title><path class="cls-1" d="M106.75,229.66H490.68V613.52H106.75V229.66ZM253.86,523.39h218.6V463.76H278.7Zm80.89-131.91c0-1.29,0-2.16,0-3q0-60.92,0-121.84c0-14.75-10.28-24.93-25-25-12.62,0-25.24.06-37.86-.08-1.86,0-3.73-.92-5.58-1.48-4.72-1.45-9.4-4.07-14.15-4.21-16.85-.52-33.74-0.39-50.6-0.14-13.17.19-25.34,9.84-27.68,22.74-1.47,8.1-1,16.55-1.45,25.12h24.7c4.56,14.74,13.95,23.8,29.51,23.87,15.73,0.07,25.27-9,29.88-24h24.42V265.64h21.18c6.93,0,8.68,1.73,8.68,8.57q0,56.42,0,112.84v4.43h24ZM227.33,417.91a26.76,26.76,0,0,1-3-2.27c-9.6-9.48-19-19.16-28.79-28.45-5.13-4.88-11.69-7.12-18.77-7.48-13.78-.69-25.88,6.69-31.28,18.95s-2.69,26,7.31,35.78c8.06,7.84,16.32,15.48,24.49,23.2,1.86,1.76,3.73,3.5,5.34,5ZM281,427.8v23.55H448.55V427.8H281Zm101.73-36.34c0-1.65,0-3,0-4.35,0-14.49-.08-29,0-43.47a18,18,0,1,1,36,0c0,1.94,0,3.88,0,5.77h24.43c-0.54-5.29-.52-10.45-1.66-15.33-4.81-20.67-24.18-34.51-44.73-32.32a42,42,0,0,0-38,41.64c-0.14,11.49,0,23,0,34.48,0,4.46,0,8.92,0,13.55h24ZM192,471.59l50.29,47.48a11.56,11.56,0,0,0,.88-1.35c7.82-18.77,15.6-37.56,23.51-56.3,0.88-2.08.23-3.17-1.14-4.51q-9.87-9.74-19.62-19.61c-3.3-3.36-6.43-6.89-9.45-10.13Zm20.63,71.91a29,29,0,0,0-9.84,20.56,29.9,29.9,0,0,0,23.64,30.86,29.55,29.55,0,0,0,34.38-19.2c1.2-3.3,2.7-4.17,6.08-4.17q79.65,0.17,159.31.08h4.34V559.92H250c1.63,11.19-1.93,18.74-10.34,22.27a17.89,17.89,0,0,1-21.42-5.9c-5.56-7.45-4.58-15.73,3.07-24.88Zm259.91-7.86H293.21c-13.87,0-27.73,0-41.6,0-1.24,0-3.11.27-3.59,1.07-2,3.36-3.57,7-5.4,10.69h230V535.64Zm-29.83,59.92c0-2.43.1-4.53-.05-6.62a2.78,2.78,0,0,0-1.09-2.1c-3.2-1.19-6.49-3.05-9.75-3.07-35.11-.22-70.23-0.14-105.35-0.14q-26.24,0-52.49,0c-1.19,0-3-.1-3.48.59-2.72,3.59-5.13,7.43-7.73,11.31H442.75Zm5.83-191.67H281.05v11.56H448.57V403.89ZM230.91,543.83c1.76-3.51,3.19-6.82,5-9.89,1.35-2.25,1-3.56-.88-5.33-10.89-10.09-21.64-20.32-32.44-30.51L183.46,480l-11.27,6.89c2.21,3.22,3.85,6.8,6.51,9.31,11.44,10.78,23.17,21.24,34.8,31.81ZM174.64,471c-1.25-1-2.53-1.77-3.62-2.79q-13.12-12.32-26.18-24.71a43.39,43.39,0,0,1-13.48-25.31,7.25,7.25,0,0,0-.72-1.62,24.94,24.94,0,0,0,1.27,33.62c6.73,7,13.67,13.9,20.66,20.7C158.6,476.76,167.44,476.93,174.64,471Zm9.18-143.1,16.53-16.52-7.18-7.6-16.72,16.75Zm68.88-16.59,16.61,16.61,7.8-7.61-16.67-16.63Zm-20.1,8.6H220.93v23.5H232.6v-23.5Zm0.11,239.75a6,6,0,1,0,6,5.93A6,6,0,0,0,232.71,559.67Z" transform="translate(-106.75 -229.66)"/><path d="M253.86,523.39l24.84-59.63H472.46v59.63H253.86ZM412.6,475.92H400.93v11.51H412.6V475.92Zm12.39-.2v11.65h11.45V475.72H425Zm24,0v11.67h11.47V475.71H449Z" transform="translate(-106.75 -229.66)"/><path d="M334.75,391.48h-24v-4.43q0-56.42,0-112.84c0-6.84-1.75-8.56-8.68-8.57H280.88v17.81H256.46c-4.62,15-14.15,24.09-29.88,24-15.57-.07-25-9.13-29.51-23.87h-24.7c0.43-8.57,0-17,1.45-25.12,2.34-12.9,14.51-22.55,27.68-22.74,16.87-.25,33.75-0.38,50.6.14,4.75,0.15,9.43,2.76,14.15,4.21,1.84,0.57,3.71,1.46,5.58,1.48,12.62,0.13,25.24,0,37.86.08,14.76,0,25,10.23,25,25q0.06,60.92,0,121.84C334.75,389.33,334.75,390.19,334.75,391.48Z" transform="translate(-106.75 -229.66)"/><path d="M227.33,417.91L182.6,462.64c-1.6-1.51-3.48-3.25-5.34-5-8.17-7.72-16.43-15.36-24.49-23.2-10-9.73-12.72-23.5-7.31-35.78s17.5-19.64,31.28-18.95c7.08,0.35,13.64,2.6,18.77,7.48,9.78,9.3,19.19,19,28.79,28.45A26.76,26.76,0,0,0,227.33,417.91Z" transform="translate(-106.75 -229.66)"/><path d="M281,427.8H448.55v23.55H281V427.8Z" transform="translate(-106.75 -229.66)"/><path d="M382.75,391.47h-24c0-4.63,0-9.09,0-13.55,0-11.49-.11-23,0-34.48a42,42,0,0,1,38-41.64c20.55-2.19,39.93,11.65,44.73,32.32,1.14,4.89,1.12,10,1.66,15.33H418.74c0-1.89,0-3.83,0-5.77a18,18,0,1,0-36,0c-0.11,14.49,0,29,0,43.47C382.75,388.47,382.75,389.82,382.75,391.47Z" transform="translate(-106.75 -229.66)"/><path d="M192,471.59l44.47-44.41c3,3.24,6.14,6.77,9.45,10.13q9.73,9.89,19.62,19.61c1.36,1.34,2,2.43,1.14,4.51-7.91,18.73-15.69,37.53-23.51,56.3a11.56,11.56,0,0,1-.88,1.35Z" transform="translate(-106.75 -229.66)"/><path d="M212.67,543.5l8.68,7.92c-7.65,9.15-8.62,17.42-3.07,24.88a17.89,17.89,0,0,0,21.42,5.9c8.41-3.54,12-11.09,10.34-22.27H430.57v11.72h-4.34q-79.65,0-159.31-.08c-3.38,0-4.87.86-6.08,4.17a29.55,29.55,0,0,1-34.38,19.2,29.9,29.9,0,0,1-23.64-30.86A29,29,0,0,1,212.67,543.5Z" transform="translate(-106.75 -229.66)"/><path d="M472.58,535.64v11.81h-230c1.83-3.72,3.41-7.33,5.4-10.69,0.48-.8,2.35-1.07,3.59-1.07,13.87-.07,27.73,0,41.6,0H472.58Z" transform="translate(-106.75 -229.66)"/><path d="M442.75,595.56H262.81c2.61-3.88,5-7.72,7.73-11.31,0.52-.69,2.29-0.58,3.48-0.59q26.24-.05,52.49,0c35.12,0,70.23-.08,105.35.14,3.27,0,6.55,1.88,9.75,3.07a2.78,2.78,0,0,1,1.09,2.1C442.84,591,442.75,593.13,442.75,595.56Z" transform="translate(-106.75 -229.66)"/><path d="M448.57,403.89v11.56H281.05V403.89H448.57Z" transform="translate(-106.75 -229.66)"/><path d="M230.91,543.83L213.51,528c-11.63-10.57-23.36-21-34.8-31.81-2.66-2.51-4.31-6.09-6.51-9.31L183.46,480l19.15,18.07c10.8,10.19,21.55,20.43,32.44,30.51,1.91,1.77,2.23,3.08.88,5.33C234.1,537,232.67,540.32,230.91,543.83Z" transform="translate(-106.75 -229.66)"/><path d="M174.64,471c-7.2,5.92-16,5.76-22.06-.11-7-6.8-13.93-13.65-20.66-20.7a24.94,24.94,0,0,1-1.27-33.62,7.25,7.25,0,0,1,.72,1.62,43.39,43.39,0,0,0,13.48,25.31q13,12.39,26.18,24.71C172.1,469.24,173.38,470,174.64,471Z" transform="translate(-106.75 -229.66)"/><path d="M183.81,327.91l-7.37-7.37,16.72-16.75,7.18,7.6Z" transform="translate(-106.75 -229.66)"/><path d="M252.7,311.32l7.74-7.63,16.67,16.63-7.8,7.61Z" transform="translate(-106.75 -229.66)"/><path d="M232.6,319.92v23.5H220.93v-23.5H232.6Z" transform="translate(-106.75 -229.66)"/><path d="M232.71,559.67a6,6,0,1,1-5.93,6A6,6,0,0,1,232.71,559.67Z" transform="translate(-106.75 -229.66)"/><path class="cls-1" d="M412.6,475.92v11.51H400.93V475.92H412.6Z" transform="translate(-106.75 -229.66)"/><path class="cls-1" d="M425,475.72h11.45v11.65H425V475.72Z" transform="translate(-106.75 -229.66)"/><path class="cls-1" d="M449,475.71h11.47v11.67H449V475.71Z" transform="translate(-106.75 -229.66)"/></svg>