<svg id="Capa_1" data-name="Capa 1" xmlns="http://www.w3.org/2000/svg" viewBox="0 0 410.25 410.33"><defs><style>.cls-1{fill:#fff;}</style></defs><title>descuento</title><path d="M294.6,216.69h8c10.78,1.74,19,7.77,26.37,15.4,6,6.22,12.46,12,18.64,18.11a13.49,13.49,0,0,0,12,4c10-1.45,20.06-2.75,30-4.36,22-3.55,39.09,8,43.52,29.81,2,10,3.77,20.16,5.32,30.29,0.9,5.88,3.55,10,9,12.71,9.17,4.57,18.18,9.48,27.19,14.37,19,10.31,25.32,29.81,16,49.35-4.41,9.25-8.86,18.49-13.54,27.61a15.45,15.45,0,0,0,.06,15.21c4.51,8.75,8.73,17.66,13,26.52,10,20.49,3.65,40.06-16.4,50.75-8.93,4.76-17.82,9.6-26.83,14.2a14.64,14.64,0,0,0-8.34,11.4c-1.6,9.72-3.38,19.41-5,29.13-3.7,22.44-19.68,34.79-42.18,32.23-10.19-1.16-20.34-2.68-30.46-4.33-5.6-.92-10.13.29-14.18,4.36-7.34,7.36-14.88,14.53-22.4,21.71-15.61,14.89-36.27,14.88-51.88,0q-11.57-11-23-22.25a13.47,13.47,0,0,0-12-4c-10.15,1.48-20.32,2.82-30.45,4.41-21.8,3.43-38.84-8.14-43.2-29.72-2.05-10.18-3.78-20.43-5.4-30.68-0.9-5.72-3.53-9.75-8.81-12.39-9-4.53-17.92-9.4-26.84-14.18C103.38,495.74,97,476.11,106.72,456c4.29-8.87,8.47-17.8,13-26.52,2.85-5.45,2.93-10.44.07-15.92-4.68-9-9-18.12-13.36-27.25-9.29-19.52-3-39.07,16-49.37,9.13-5,18.28-9.87,27.54-14.56a14.88,14.88,0,0,0,8.5-11.73c1.59-9.86,3.3-19.7,5.06-29.53,4-22.17,20.13-34.29,42.33-31.55,10.18,1.25,20.32,2.77,30.45,4.39,5.44,0.87,9.89-.39,13.81-4.34,5.91-6,12.21-11.54,18.05-17.57C275.62,224.46,283.82,218.43,294.6,216.69Zm94.6,127.5c-0.89-7.23-6.17-12.42-12.86-12.38-4.08,0-7,2.2-9.67,4.91q-76.44,76.49-152.92,153a22,22,0,0,0-2.67,3,11.74,11.74,0,0,0,9.38,18.54c4.59,0.16,7.64-2.48,10.63-5.47q67.39-67.45,134.83-134.86c6-6,12.22-11.91,18-18.17C386.16,350.28,387.47,347,389.2,344.19Zm-42.86,97.1c-23.6-.28-43.41,18.83-43.74,42.21a43.51,43.51,0,0,0,43,44.31c23.52,0.19,43.21-19.06,43.51-42.52A43.1,43.1,0,0,0,346.34,441.29Zm-95.11-39.57a43.28,43.28,0,1,0-43.1-43.67A43.31,43.31,0,0,0,251.23,401.72Z" transform="translate(-93.92 -216.69)"/><path class="cls-1" d="M294.6,216.69c-10.78,1.74-19,7.77-26.37,15.4-5.84,6-12.14,11.61-18.05,17.57-3.92,4-8.37,5.21-13.81,4.34-10.12-1.62-20.27-3.14-30.45-4.39-22.2-2.74-38.38,9.38-42.33,31.55-1.75,9.83-3.46,19.67-5.06,29.53a14.88,14.88,0,0,1-8.5,11.73c-9.26,4.69-18.42,9.6-27.54,14.56-19,10.29-25.3,29.85-16,49.37,4.35,9.13,8.68,18.28,13.36,27.25,2.86,5.48,2.78,10.47-.07,15.92-4.57,8.72-8.75,17.65-13,26.52-9.7,20.07-3.35,39.7,16.24,50.21,8.92,4.78,17.79,9.65,26.84,14.18,5.28,2.65,7.91,6.68,8.81,12.39,1.62,10.26,3.34,20.51,5.4,30.68,4.36,21.59,21.4,33.16,43.2,29.72,10.13-1.59,20.3-2.93,30.45-4.41a13.47,13.47,0,0,1,12,4q11.42,11.2,23,22.25c15.6,14.9,36.27,14.9,51.88,0,7.52-7.18,15.06-14.35,22.4-21.71,4.05-4.06,8.58-5.27,14.18-4.36,10.12,1.66,20.27,3.18,30.46,4.33,22.49,2.56,38.47-9.79,42.18-32.23,1.6-9.72,3.39-19.41,5-29.13a14.64,14.64,0,0,1,8.34-11.4c9-4.59,17.9-9.43,26.83-14.2,20.05-10.7,26.38-30.26,16.4-50.75-4.31-8.86-8.53-17.76-13-26.52a15.45,15.45,0,0,1-.06-15.21c4.67-9.12,9.13-18.36,13.54-27.61,9.31-19.54,3-39-16-49.35-9-4.89-18-9.79-27.19-14.37-5.43-2.71-8.08-6.83-9-12.71-1.56-10.13-3.28-20.24-5.32-30.29-4.43-21.82-21.52-33.36-43.52-29.81-10,1.61-20,2.91-30,4.36a13.49,13.49,0,0,1-12-4c-6.18-6.07-12.61-11.9-18.64-18.11-7.4-7.63-15.6-13.66-26.37-15.4H504.18V627H93.92V216.69H294.6Z" transform="translate(-93.92 -216.69)"/><path class="cls-1" d="M389.2,344.19c-1.73,2.86-3,6.1-5.26,8.49-5.79,6.25-12,12.14-18,18.17Q298.5,438.27,231.1,505.7c-3,3-6,5.63-10.63,5.47a11.74,11.74,0,0,1-9.38-18.54,22,22,0,0,1,2.67-3q76.46-76.48,152.92-153c2.71-2.72,5.59-4.89,9.67-4.91C383,331.76,388.31,337,389.2,344.19Z" transform="translate(-93.92 -216.69)"/><path class="cls-1" d="M346.34,441.29a43.1,43.1,0,0,1,42.72,44c-0.3,23.46-20,42.71-43.51,42.52a43.51,43.51,0,0,1-43-44.31C302.93,460.12,322.74,441,346.34,441.29ZM345.89,504a19.58,19.58,0,0,0,19.63-19.5,19.65,19.65,0,1,0-39.29.09A19.51,19.51,0,0,0,345.89,504Z" transform="translate(-93.92 -216.69)"/><path class="cls-1" d="M251.23,401.72a43.28,43.28,0,1,1,43.4-43A43.17,43.17,0,0,1,251.23,401.72Zm0.27-62.78a19.6,19.6,0,0,0-19.8,19.32c-0.23,10.69,9,20,19.72,19.93A19.87,19.87,0,0,0,271,358.54,19.56,19.56,0,0,0,251.5,338.94Z" transform="translate(-93.92 -216.69)"/><path d="M345.89,504a19.51,19.51,0,0,1-19.67-19.41,19.65,19.65,0,1,1,39.29-.09A19.58,19.58,0,0,1,345.89,504Z" transform="translate(-93.92 -216.69)"/><path d="M251.5,338.94A19.56,19.56,0,0,1,271,358.54a19.87,19.87,0,0,1-19.57,19.65c-10.76,0-19.95-9.24-19.72-19.93A19.6,19.6,0,0,1,251.5,338.94Z" transform="translate(-93.92 -216.69)"/></svg>