<svg id="Capa_1" data-name="Capa 1" xmlns="http://www.w3.org/2000/svg" viewBox="0 0 383.88 383.94"><defs><style>.cls-1 {fill: none;}</style></defs><title>factura</title><path class="cls-1" d="M106.76,613.64V229.7H490.64V613.64H106.76Zm111.92-28.27c1.86,0.08,3.06.19,4.27,0.19q93.55,0,187.1,0a27.88,27.88,0,0,0,4.48-.26,8.43,8.43,0,0,0,7.39-7,26.47,26.47,0,0,0,.4-5.58q0-131.42,0-262.84c0-8.77,2.17-16.5,7.92-23.17a1.73,1.73,0,0,0,.06-0.76H281.79a10.09,10.09,0,0,0,1.11,1c12,7.39,17.48,18.17,17.44,32.25-0.13,50.62,0,101.24-.06,151.85,0,21.69-14.49,36.25-36.11,36.33-10.87,0-21.75,0-32.62,0-1.31,0-2.62.13-4.14,0.21,0,1.79,0,3.15,0,4.52q0,24.56,0,49.12a60.93,60.93,0,0,1-.36,6.35C226.33,574.29,223.29,579.91,218.68,585.37ZM147.13,291.91C134.68,292.38,124,303.31,124,316q-0.19,79.09,0,158.19c0,10,5.24,17.54,14.26,21.58a35.87,35.87,0,0,0,14.13,2.69c36.73,0.21,73.47.12,110.21,0.11,1.75,0,3.5-.07,5.24-0.21,13.21-1.12,23.33-11.61,23.35-24.8q0.15-78.53,0-157.06a25,25,0,0,0-19.32-24.17,31,31,0,0,0-3.88-.46v18.7c3,0,5.86-.5,8.4.18a6.16,6.16,0,0,1,3.85,4.05c0.19,1.3-1.72,3.3-3.17,4.3-1.06.73-2.89,0.42-4.38,0.42q-65.23,0-130.45,0a24.61,24.61,0,0,1-3.37-.08c-2.68-.37-4.5-1.81-4.35-4.67s1.91-4.21,4.72-4.23c2.58,0,5.16,0,7.86,0v-18.6Zm111.32,18.34v-51.7H156.5v51.7H258.44ZM218.37,525H174.85c0,13.22-.15,26.18,0,39.15a21.7,21.7,0,0,0,43.38.63C218.69,551.65,218.37,538.54,218.37,525ZM474.92,346.31c0-12.88.05-25.36,0-37.84-0.07-13.08-9.37-22.73-21.81-22.74s-21.67,9.48-21.75,22.68c-0.07,11.49,0,23,0,34.48,0,1.08.15,2.17,0.24,3.42h43.34Z" transform="translate(-106.76 -229.7)"/><path d="M218.68,585.37c4.61-5.45,7.65-11.08,8.36-17.7a60.93,60.93,0,0,0,.36-6.35q0-24.56,0-49.12c0-1.36,0-2.73,0-4.52,1.52-.08,2.83-0.21,4.14-0.21,10.87,0,21.75,0,32.62,0,21.62-.09,36.1-14.65,36.11-36.33,0-50.62-.07-101.24.06-151.85,0-14.08-5.41-24.86-17.44-32.25a10.09,10.09,0,0,1-1.11-1H430.25a1.73,1.73,0,0,1-.06.76c-5.74,6.67-7.93,14.4-7.92,23.17q0.15,131.42,0,262.84a26.47,26.47,0,0,1-.4,5.58,8.43,8.43,0,0,1-7.39,7,27.88,27.88,0,0,1-4.48.26q-93.55,0-187.1,0C221.74,585.56,220.54,585.45,218.68,585.37ZM323.11,550.7h66.7c2.87,0,5.75,0,8.62,0s4.53-1.44,4.63-4.3-1.67-4.29-4.37-4.63a23.93,23.93,0,0,0-3-.06h-145c-1.24,0-2.87-.37-3.65.26-1.49,1.19-3.48,3-3.42,4.51s2.3,3,3.87,4.09c0.76,0.53,2.19.13,3.31,0.13h72.32Zm0-32.33H250.79c-1.25,0-2.81-.4-3.67.19-1.49,1-3.59,2.71-3.53,4,0.08,1.6,2,3.26,3.4,4.57,0.56,0.52,1.92.2,2.92,0.2H396.44c1.12,0,2.62.33,3.28-.25,1.36-1.19,3.15-2.91,3.12-4.37s-1.91-3.11-3.35-4.16c-0.83-.61-2.42-0.21-3.67-0.21h-72.7Zm-0.05,55.78H395c1.25,0,2.5,0,3.74-.07,2.6-.19,4.23-1.55,4.32-4.23,0.1-2.89-1.63-4.31-4.34-4.64a24.85,24.85,0,0,0-3-.06h-145c-1.24,0-2.85-.35-3.65.27-1.5,1.17-3.53,3-3.48,4.44s2.26,3,3.85,4.08c0.89,0.58,2.43.19,3.68,0.2h71.93Zm46.88-217.91a8,8,0,0,1-4.34,6.69,8.55,8.55,0,0,1-12.8-6.28c-0.46-3.15-1.64-5.33-5.07-5.22-2.91.1-4.44,2.66-3.93,6.47a16,16,0,0,0,9.09,12.93c2.82,1.37,4.27,2.71,4,6-0.26,2.78,1.21,5,4.31,5,3.3,0.05,4.78-2.11,4.52-5.14s1-4.46,3.76-5.75a16.94,16.94,0,0,0,9.32-18c-1.29-8.12-6.25-12.92-14.67-14.14-1.6-.23-3.24-0.22-4.85-0.42a6.89,6.89,0,0,1-6.48-6.6,8.39,8.39,0,0,1,7.41-9.55,8.63,8.63,0,0,1,9.72,7.28c0.78,4.1,2.39,5.66,5.34,5.17s4.21-3,3.54-6.75c-1.07-5.92-4.19-10.48-9.72-12.9-2.59-1.13-3.64-2.46-3.35-5.26,0.31-3-.93-5.19-4.23-5.47-2.82-.23-4.77,1.87-4.63,5.49,0.11,2.79-.8,4.1-3.38,5.27-7.05,3.2-10.65,10.37-9.62,18.19A15.77,15.77,0,0,0,357,347.2c2.08,0.38,4.24.27,6.33,0.62C367.72,348.54,369.94,351.23,369.94,356.23Zm-9.42,100.84H395c1.37,0,3,.43,4-0.19,1.59-1,3.74-2.63,3.8-4.07s-2-3.2-3.37-4.5c-0.57-.52-1.92-0.24-2.91-0.24q-35.75,0-71.51,0c-1.11,0-2.6-.21-3.25.39-1.32,1.23-3.09,3-3,4.46s2.13,2.91,3.62,3.94c0.77,0.54,2.18.19,3.3,0.19h34.82Zm0.2,46.93h33.7a27.94,27.94,0,0,0,4.85-.16c2.52-.45,4.38-2.19,3.64-4.69-0.48-1.62-2.53-2.82-4-4.06-0.37-.31-1.21-0.09-1.83-0.09H324.45c-0.75,0-1.76-.24-2.19.15-1.37,1.23-3.3,2.59-3.51,4.11-0.18,1.29,1.48,3.18,2.8,4.21,0.91,0.71,2.62.51,4,.51C337.26,504,349,504,360.72,504ZM361,433.66c12.23,0,24.46,0,36.7,0,3.58,0,5.63-1.83,5.33-4.74-0.4-3.8-3.16-4.26-6.28-4.26q-35.95,0-71.89,0c-4.18,0-6.44,1.68-6.37,4.63s2.16,4.35,6.2,4.36Q342.87,433.68,361,433.66ZM361,401.33h-2.62c-11.48,0-23,0-34.45,0-4,0-6.23,2.67-5.07,5.86,1,2.72,3.21,3.13,5.75,3.13q36.13,0,72.27,0c4.27,0,6.33-1.59,6.24-4.68s-2-4.3-6.17-4.31Q378.94,401.31,361,401.33Zm-0.09,79.23q17.59,0,35.19,0c1.36,0,3.07.25,4-.45,1.32-1,2.85-2.77,2.81-4.18s-1.7-3-3-4c-0.84-.62-2.41-0.33-3.65-0.33q-35.37,0-70.75,0c-1.12,0-2.56-.3-3.29.26-1.42,1.11-3.37,2.72-3.38,4.14s1.85,3.14,3.28,4.23c0.83,0.63,2.41.34,3.65,0.34Q343.28,480.58,360.87,480.56Z" transform="translate(-106.76 -229.7)"/><path d="M147.13,291.91v18.6c-2.7,0-5.28,0-7.86,0-2.81,0-4.58,1.43-4.72,4.23s1.68,4.3,4.35,4.67a24.61,24.61,0,0,0,3.37.08q65.23,0,130.45,0c1.49,0,3.32.3,4.38-.42,1.45-1,3.36-3,3.17-4.3a6.16,6.16,0,0,0-3.85-4.05c-2.54-.68-5.4-0.18-8.4-0.18v-18.7a31,31,0,0,1,3.88.46,25,25,0,0,1,19.32,24.17q0.13,78.53,0,157.06c0,13.19-10.15,23.69-23.35,24.8-1.74.15-3.49,0.21-5.24,0.21-36.74,0-73.47.1-110.21-.11a35.87,35.87,0,0,1-14.13-2.69c-9-4-14.23-11.61-14.26-21.58q-0.27-79.09,0-158.19C124,303.31,134.68,292.38,147.13,291.91Zm60.26,83.25q33.55,0,67.1,0c4.57,0,6.09-1.47,6.11-6q0.07-16.12,0-32.24c0-4.82-1.42-6.25-6.26-6.25q-66.91,0-133.81,0c-4.7,0-6,1.38-6,6q0,15.93,0,31.86c0,5.43,1.18,6.62,6.56,6.62h66.35Zm56.77,72.72c3.62,0,7.24.05,10.86,0,3.85-.07,5.52-1.63,5.57-5.45,0.1-6.49.07-13,0-19.47,0-3.48-1.85-5.23-5.41-5.21-7.36,0-14.72,0-22.09,0-3.73,0-5.28,1.56-5.32,5.2q-0.11,9.73,0,19.47c0,3.82,1.63,5.35,5.53,5.43C256.92,447.94,260.54,447.89,264.16,447.89ZM264.25,381c-3.74,0-7.49-.06-11.23,0s-5.21,1.55-5.25,5.25q-0.1,9.73,0,19.47c0,3.65,1.62,5.3,5.23,5.34,7.49,0.08,15,.06,22.46,0,3.34,0,5.08-1.9,5.12-5.16,0.08-6.61.11-13.23,0-19.84-0.07-3.6-1.71-5-5.47-5.08S267.87,381,264.25,381ZM151,484.64h11.23c3.33,0,5.17-1.69,5.2-5,0.07-6.74.08-13.48,0-20.22,0-3.12-1.74-4.84-4.95-4.84q-11.42,0-22.84,0c-3.43,0-5,1.91-5,5.16-0.05,6.61-.07,13.23,0,19.84,0,3.28,1.79,5.07,5.16,5.07H151Zm0-103.63c-3.74,0-7.49,0-11.23,0-3.39,0-5.15,1.7-5.2,5-0.08,6.61-.1,13.23,0,19.84,0.05,3.59,1.74,5.21,5.37,5.25q11,0.11,22.09,0c3.65,0,5.31-1.65,5.36-5.24,0.09-6.49.08-13,0-19.47,0-3.86-1.59-5.31-5.54-5.37C158.29,381,154.67,381,151.05,381Zm0.32,36.79c-3.87,0-7.74,0-11.61,0-3.42,0-5.11,1.76-5.15,5-0.08,6.61-.06,13.23,0,19.84,0,3.27,1.69,5.18,5.06,5.2q11.42,0.07,22.84,0c3.14,0,4.9-1.76,4.93-4.89q0.11-10.11,0-20.22c0-3.33-1.83-5-5.21-5C158.61,417.83,155,417.8,151.37,417.8Zm112.75,36.75c-3.62,0-7.24,0-10.86,0-4,.06-5.47,1.52-5.5,5.4q-0.09,9.55,0,19.09c0,3.94,1.54,5.54,5.36,5.57q11,0.1,22.09,0c3.63,0,5.31-1.61,5.37-5.24q0.17-9.73,0-19.47c-0.06-3.85-1.66-5.3-5.6-5.36C271.37,454.51,267.75,454.55,264.13,454.55Zm-75.32,0c-3.62,0-7.23,0-10.85,0-4,.06-5.53,1.39-5.59,5.32q-0.16,9.72,0,19.45c0.06,3.72,1.65,5.25,5.29,5.28q11,0.1,22.07,0c3.72,0,5.3-1.54,5.34-5.16,0.08-6.61,0-13.22,0-19.83,0-3.36-1.68-5.07-5.06-5.07H188.81Zm-0.38-43.44c3.87,0,7.73,0,11.6,0,3.32,0,5.07-1.74,5.07-5.12q0-9.91,0-19.83c0-3.34-1.58-5.13-5-5.13H177.29c-3.24,0-4.87,1.77-4.91,4.86q-0.13,10.1,0,20.2c0,3.29,1.86,5,5.2,5h10.85Zm0.41,36.78c3.62,0,7.23.06,10.85,0s5.33-1.56,5.38-5.16c0.08-6.61,0-13.22,0-19.83,0-3.37-1.65-5.1-5-5.11-7.48,0-15,0-22.45,0-3.6,0-5.26,1.85-5.28,5.31,0,6.48-.09,13,0,19.45,0.07,3.84,1.69,5.29,5.63,5.36C181.6,447.94,185.22,447.89,188.84,447.89Zm37.52,36.75c3.62,0,7.23,0,10.85,0,4-.05,5.52-1.45,5.59-5.34q0.16-9.72,0-19.45c-0.06-3.8-1.52-5.23-5.24-5.27q-11-.1-22.07,0c-3.8,0-5.31,1.44-5.35,5.11q-0.13,9.91,0,19.82c0,3.62,1.62,5.06,5.38,5.12S222.74,484.64,226.36,484.64Zm0-66.87c-3.74,0-7.48,0-11.22,0-3.37,0-5,1.75-5,5.11q0,9.91,0,19.82c0,3.36,1.69,5.13,5,5.16,7.48,0.05,15,0,22.44,0,3.32,0,5.19-1.64,5.22-5q0.1-10.1,0-20.2c0-3.35-1.87-5-5.22-4.94C233.83,417.79,230.09,417.76,226.35,417.77ZM226.59,381c-3.87,0-7.73,0-11.6,0-3.19,0-4.85,1.67-4.87,4.85,0,6.73,0,13.47,0,20.2,0,3.4,1.84,5,5.14,5q11.22,0,22.44,0c3.12,0,5-1.57,5.06-4.74,0.1-6.86.09-13.71,0-20.57,0-3.15-1.76-4.79-5-4.78H226.59Z" transform="translate(-106.76 -229.7)"/><path d="M258.44,310.25H156.5v-51.7H258.44v51.7Zm-50.76-19.89c-10.23,0-20.47,0-30.7,0-3.1,0-5.53.75-5.79,4.32-0.22,3,1.87,4.68,5.82,4.69,20.34,0,40.68,0,61,0,3.12,0,5.49-.94,5.85-4.38,0.3-2.87-2-4.62-5.88-4.63C227.9,290.35,217.79,290.36,207.68,290.36Zm0.12-20.47c-10.23,0-20.46,0-30.69,0-4.1,0-6.08,1.51-5.92,4.51,0.19,3.6,2.7,4.46,5.72,4.47q30.5,0,61,0c3.87,0,6.08-1.82,6-4.63s-2.15-4.33-6.2-4.34C227.76,269.88,217.78,269.89,207.8,269.89Z" transform="translate(-106.76 -229.7)"/><path d="M218.37,525c0,13.57.32,26.69-.09,39.77a21.7,21.7,0,0,1-43.38-.63c-0.2-13,0-25.93,0-39.15h43.52Z" transform="translate(-106.76 -229.7)"/><path d="M474.92,346.31H431.58c-0.09-1.25-.24-2.33-0.24-3.42,0-11.49-.07-23,0-34.48,0.08-13.21,9.24-22.7,21.75-22.68s21.74,9.66,21.81,22.74C475,321,474.92,333.43,474.92,346.31Z" transform="translate(-106.76 -229.7)"/><path class="cls-1" d="M323.11,550.7H250.79c-1.12,0-2.54.4-3.31-.13-1.57-1.09-3.81-2.64-3.87-4.09s1.93-3.32,3.42-4.51c0.79-.63,2.41-0.26,3.65-0.26h145a23.93,23.93,0,0,1,3,.06c2.69,0.34,4.47,1.74,4.37,4.63s-1.84,4.25-4.63,4.3-5.75,0-8.62,0h-66.7Z" transform="translate(-106.76 -229.7)"/><path class="cls-1" d="M323.12,518.36h72.7c1.25,0,2.83-.4,3.67.21,1.44,1,3.32,2.71,3.35,4.16s-1.76,3.18-3.12,4.37c-0.66.58-2.16,0.25-3.28,0.25H249.91c-1,0-2.36.32-2.92-.2-1.42-1.31-3.33-3-3.4-4.57-0.06-1.32,2-3,3.53-4,0.87-.59,2.43-0.19,3.67-0.19h72.32Z" transform="translate(-106.76 -229.7)"/><path class="cls-1" d="M323.07,574.14H251.13c-1.25,0-2.79.39-3.68-.2-1.59-1-3.8-2.64-3.85-4.08s2-3.27,3.48-4.44c0.8-.63,2.41-0.27,3.65-0.27h145a24.85,24.85,0,0,1,3,.06c2.71,0.33,4.44,1.75,4.34,4.64-0.09,2.68-1.72,4-4.32,4.23-1.24.09-2.5,0.07-3.74,0.07H323.07Z" transform="translate(-106.76 -229.7)"/><path class="cls-1" d="M369.94,356.23c0-5-2.23-7.7-6.57-8.42-2.09-.35-4.25-0.24-6.33-0.62a15.77,15.77,0,0,1-13.2-13.92c-1-7.82,2.57-15,9.62-18.19,2.58-1.17,3.49-2.48,3.38-5.27-0.14-3.63,1.81-5.73,4.63-5.49,3.3,0.27,4.54,2.48,4.23,5.47-0.29,2.8.76,4.12,3.35,5.26,5.53,2.42,8.65,7,9.72,12.9,0.67,3.72-.72,6.29-3.54,6.75s-4.57-1.07-5.34-5.17a8.63,8.63,0,0,0-9.72-7.28,8.39,8.39,0,0,0-7.41,9.55,6.89,6.89,0,0,0,6.48,6.6c1.61,0.2,3.25.19,4.85,0.42,8.43,1.22,13.38,6,14.67,14.14a16.94,16.94,0,0,1-9.32,18c-2.76,1.29-4,2.64-3.76,5.75s-1.21,5.19-4.52,5.14c-3.1-.05-4.57-2.23-4.31-5,0.31-3.32-1.13-4.66-4-6a16,16,0,0,1-9.09-12.93c-0.51-3.8,1-6.37,3.93-6.47,3.43-.11,4.61,2.07,5.07,5.22a8.55,8.55,0,0,0,12.8,6.28A8,8,0,0,0,369.94,356.23Z" transform="translate(-106.76 -229.7)"/><path class="cls-1" d="M360.52,457.08H325.71c-1.12,0-2.53.35-3.3-.19-1.48-1-3.51-2.52-3.62-3.94s1.66-3.22,3-4.46c0.65-.6,2.14-0.39,3.25-0.39q35.75,0,71.51,0c1,0,2.35-.28,2.91.24,1.41,1.3,3.43,3,3.37,4.5s-2.21,3.1-3.8,4.07c-1,.62-2.68.19-4,0.19H360.52Z" transform="translate(-106.76 -229.7)"/><path class="cls-1" d="M360.72,504c-11.73,0-23.46,0-35.19,0-1.35,0-3.06.2-4-.51-1.32-1-3-2.92-2.8-4.21,0.21-1.52,2.14-2.88,3.51-4.11,0.43-.39,1.45-0.15,2.19-0.15h72.63c0.62,0,1.46-.22,1.83.09,1.47,1.24,3.51,2.44,4,4.06,0.74,2.49-1.12,4.23-3.64,4.69a27.94,27.94,0,0,1-4.85.16h-33.7Z" transform="translate(-106.76 -229.7)"/><path class="cls-1" d="M361,433.67q-18.16,0-36.32,0c-4,0-6.12-1.51-6.2-4.36s2.19-4.63,6.37-4.63q35.95,0,71.89,0c3.12,0,5.88.46,6.28,4.26,0.3,2.9-1.75,4.73-5.33,4.74C385.5,433.69,373.27,433.66,361,433.67Z" transform="translate(-106.76 -229.7)"/><path class="cls-1" d="M361,401.33q18,0,35.95,0c4.19,0,6.08,1.36,6.17,4.31s-2,4.68-6.24,4.68q-36.13,0-72.27,0c-2.54,0-4.77-.41-5.75-3.13-1.16-3.19,1.06-5.84,5.07-5.86,11.48-.06,23,0,34.45,0H361Z" transform="translate(-106.76 -229.7)"/><path class="cls-1" d="M360.87,480.56q-17.59,0-35.19,0c-1.24,0-2.82.29-3.65-.34-1.43-1.09-3.29-2.8-3.28-4.23s2-3,3.38-4.14c0.73-.57,2.17-0.26,3.29-0.26q35.37,0,70.75,0c1.24,0,2.81-.29,3.65.33,1.34,1,3,2.62,3,4s-1.49,3.19-2.81,4.18c-0.93.7-2.64,0.45-4,.45Q378.46,480.59,360.87,480.56Z" transform="translate(-106.76 -229.7)"/><path class="cls-1" d="M207.39,375.17H141c-5.38,0-6.55-1.19-6.56-6.62q0-15.93,0-31.86c0-4.65,1.34-6,6-6q66.91,0,133.81,0c4.84,0,6.25,1.43,6.26,6.25q0.05,16.12,0,32.24c0,4.55-1.54,6-6.11,6Q240.93,375.18,207.39,375.17ZM143.59,366H271.4V340H143.59v26Z" transform="translate(-106.76 -229.7)"/><path class="cls-1" d="M264.16,447.89c-3.62,0-7.24.05-10.86,0-3.9-.07-5.49-1.61-5.53-5.43q-0.1-9.73,0-19.47c0-3.64,1.59-5.16,5.32-5.2,7.36-.07,14.72,0,22.09,0,3.56,0,5.37,1.73,5.41,5.21,0.06,6.49.09,13,0,19.47-0.06,3.83-1.72,5.38-5.57,5.45C271.39,447.94,267.77,447.89,264.16,447.89ZM257.05,427v11.62h14.36V427H257.05Z" transform="translate(-106.76 -229.7)"/><path class="cls-1" d="M264.25,381c3.62,0,7.24,0,10.86,0s5.4,1.48,5.47,5.08c0.12,6.61.09,13.23,0,19.84,0,3.26-1.78,5.14-5.12,5.16-7.49,0-15,.07-22.46,0-3.61,0-5.19-1.69-5.23-5.34q-0.1-9.73,0-19.47c0-3.71,1.54-5.18,5.25-5.25S260.5,381,264.25,381ZM257,390.23v11.59h14.37V390.23H257Z" transform="translate(-106.76 -229.7)"/><path class="cls-1" d="M151,484.64H139.78c-3.37,0-5.12-1.79-5.16-5.07-0.08-6.61-.06-13.23,0-19.84,0-3.25,1.61-5.16,5-5.16q11.42,0,22.84,0c3.2,0,4.91,1.72,4.95,4.84,0.09,6.74.07,13.48,0,20.22,0,3.33-1.87,5-5.2,5H151Zm7.27-20.78h-14.5v11.49h14.5V463.86Z" transform="translate(-106.76 -229.7)"/><path class="cls-1" d="M151.05,381c3.62,0,7.24,0,10.86,0,4,0.06,5.5,1.5,5.54,5.37,0.07,6.49.08,13,0,19.47,0,3.59-1.71,5.2-5.36,5.24q-11,.11-22.09,0c-3.63,0-5.32-1.66-5.37-5.25-0.1-6.61-.08-13.23,0-19.84,0-3.3,1.8-5,5.2-5C143.56,381,147.31,381,151.05,381Zm7.21,20.92V390.35H143.82v11.58h14.44Z" transform="translate(-106.76 -229.7)"/><path class="cls-1" d="M151.37,417.8c3.62,0,7.24,0,10.86,0,3.38,0,5.18,1.63,5.21,5q0.1,10.11,0,20.22c0,3.14-1.79,4.87-4.93,4.89q-11.42.09-22.84,0c-3.36,0-5-1.93-5.06-5.2-0.05-6.61-.07-13.23,0-19.84,0-3.28,1.73-5.07,5.15-5C143.64,417.83,147.51,417.8,151.37,417.8Zm-7.56,9.07V438.6H158.2V426.87H143.82Z" transform="translate(-106.76 -229.7)"/><path class="cls-1" d="M264.13,454.55c3.62,0,7.24,0,10.86,0,3.94,0.06,5.54,1.51,5.6,5.36q0.15,9.73,0,19.47c-0.06,3.62-1.74,5.21-5.37,5.24q-11,.1-22.09,0c-3.82,0-5.32-1.63-5.36-5.57q-0.08-9.55,0-19.09c0-3.88,1.55-5.33,5.5-5.4C256.89,454.5,260.51,454.55,264.13,454.55Zm-7.25,20.84h14.45V463.8H256.87v11.59Z" transform="translate(-106.76 -229.7)"/><path class="cls-1" d="M188.81,454.55H200c3.37,0,5.05,1.71,5.06,5.07,0,6.61.06,13.22,0,19.83,0,3.63-1.62,5.13-5.34,5.16q-11,.09-22.07,0c-3.64,0-5.22-1.57-5.29-5.28q-0.17-9.72,0-19.45c0.07-3.93,1.57-5.26,5.59-5.32C181.57,454.51,185.19,454.55,188.81,454.55Zm7.1,9.18H181.54v11.73H195.9V463.73Z" transform="translate(-106.76 -229.7)"/><path class="cls-1" d="M188.42,411.11H177.57c-3.35,0-5.16-1.74-5.2-5q-0.13-10.1,0-20.2c0-3.1,1.67-4.86,4.91-4.86h22.82c3.4,0,5,1.79,5,5.13q0,9.91,0,19.83c0,3.38-1.75,5.07-5.07,5.12C196.16,411.15,192.29,411.11,188.42,411.11ZM196,390.29H181.61v11.56H196V390.29Z" transform="translate(-106.76 -229.7)"/><path class="cls-1" d="M188.84,447.89c-3.62,0-7.23,0-10.85,0-3.94-.07-5.56-1.52-5.63-5.36-0.11-6.48-.05-13,0-19.45,0-3.45,1.67-5.33,5.28-5.31,7.48,0,15,0,22.45,0,3.37,0,5,1.75,5,5.11,0,6.61.06,13.22,0,19.83,0,3.6-1.64,5.08-5.38,5.16S192.45,447.89,188.84,447.89ZM196,427.06H181.62v11.56H196V427.06Z" transform="translate(-106.76 -229.7)"/><path class="cls-1" d="M226.36,484.64c-3.62,0-7.23,0-10.85,0s-5.33-1.5-5.38-5.12q-0.13-9.91,0-19.82c0-3.67,1.55-5.08,5.35-5.11q11-.09,22.07,0c3.72,0,5.18,1.46,5.24,5.27q0.15,9.72,0,19.45c-0.06,3.89-1.62,5.29-5.59,5.34C233.59,484.68,230,484.64,226.36,484.64Zm7.28-20.87H219.35v11.6h14.29v-11.6Z" transform="translate(-106.76 -229.7)"/><path class="cls-1" d="M226.35,417.76c3.74,0,7.48,0,11.22,0,3.35,0,5.19,1.59,5.22,4.94q0.09,10.1,0,20.2c0,3.34-1.91,5-5.22,5-7.48,0-15,0-22.44,0-3.33,0-5-1.8-5-5.16q0-9.91,0-19.82c0-3.36,1.65-5.1,5-5.11C218.87,417.75,222.61,417.77,226.35,417.76Zm-7.06,20.9h14.26v-11.6H219.29v11.6Z" transform="translate(-106.76 -229.7)"/><path class="cls-1" d="M226.59,381c3.74,0,7.48,0,11.22,0,3.21,0,4.93,1.63,5,4.78,0.07,6.86.08,13.72,0,20.57,0,3.17-1.94,4.73-5.06,4.74q-11.22,0-22.44,0c-3.3,0-5.14-1.63-5.14-5,0-6.73,0-13.47,0-20.2,0-3.18,1.67-4.83,4.87-4.85C218.86,381,222.72,381,226.59,381Zm7.05,9.21h-14.3v11.62h14.3V390.22Z" transform="translate(-106.76 -229.7)"/><path class="cls-1" d="M207.68,290.36c10.11,0,20.22,0,30.33,0,3.88,0,6.18,1.75,5.88,4.63-0.35,3.43-2.73,4.38-5.85,4.38-20.34,0-40.68,0-61,0-4,0-6-1.68-5.82-4.69,0.26-3.57,2.69-4.33,5.79-4.32C187.22,290.4,197.45,290.36,207.68,290.36Z" transform="translate(-106.76 -229.7)"/><path class="cls-1" d="M207.8,269.89c10,0,20,0,29.94,0,4.05,0,6.15,1.52,6.2,4.34s-2.16,4.63-6,4.63q-30.5.06-61,0c-3,0-5.53-.86-5.72-4.47-0.15-3,1.83-4.5,5.92-4.51C187.34,269.87,197.57,269.89,207.8,269.89Z" transform="translate(-106.76 -229.7)"/><path d="M143.59,366V340H271.4v26H143.59Z" transform="translate(-106.76 -229.7)"/><path d="M257.05,427h14.36v11.62H257.05V427Z" transform="translate(-106.76 -229.7)"/><path d="M257,390.23h14.37v11.59H257V390.23Z" transform="translate(-106.76 -229.7)"/><path d="M158.29,463.86v11.49h-14.5V463.86h14.5Z" transform="translate(-106.76 -229.7)"/><path d="M158.26,401.93H143.82V390.35h14.44v11.58Z" transform="translate(-106.76 -229.7)"/><path d="M143.82,426.87H158.2V438.6H143.82V426.87Z" transform="translate(-106.76 -229.7)"/><path d="M256.87,475.39V463.8h14.45v11.59H256.87Z" transform="translate(-106.76 -229.7)"/><path d="M195.9,463.73v11.73H181.54V463.73H195.9Z" transform="translate(-106.76 -229.7)"/><path d="M196,390.29v11.56H181.61V390.29H196Z" transform="translate(-106.76 -229.7)"/><path d="M196,427.06v11.56H181.62V427.06H196Z" transform="translate(-106.76 -229.7)"/><path d="M233.64,463.77v11.6H219.35v-11.6h14.29Z" transform="translate(-106.76 -229.7)"/><path d="M219.29,438.67v-11.6h14.26v11.6H219.29Z" transform="translate(-106.76 -229.7)"/><path d="M233.64,390.22v11.62h-14.3V390.22h14.3Z" transform="translate(-106.76 -229.7)"/></svg>