<svg id="Capa_1" data-name="Capa 1" xmlns="http://www.w3.org/2000/svg" viewBox="0 0 89.24 89.26"><defs><style>.cls-1{fill:#fff;}</style></defs><title>info</title><path class="cls-1" d="M296.41,465.32H253.18V376.06H305a27.13,27.13,0,0,0-4.44,1.63c-5.36,3.07-6.92,9.83-3.39,14.53a11.11,11.11,0,0,0,11.11,4.49,10.39,10.39,0,0,0,8.55-6.48c2.43-5.73-1.21-12.37-7.45-13.82l-1.41-.35h34.51v89.26H300.59a36.37,36.37,0,0,0,4.59-.91c3.19-1.05,6.32-2.29,9.47-3.46a0.83,0.83,0,0,0,.49-0.43c0.41-1.56.78-3.13,1.18-4.8l-0.94.34a17.08,17.08,0,0,1-8.63,1.06c-2.26-.39-3.32-1.35-3.76-3.6a13.48,13.48,0,0,1,.32-5.78c0.91-3.83,2-7.63,3-11.45,1.5-5.8,3.62-11.43,3.87-17.54a11.26,11.26,0,0,0-6-10.81c-3.89-1.91-8-2-12.17-1.25s-8.16,2.44-12.14,4a0.91,0.91,0,0,0-.51.51c-0.41,1.53-.77,3.06-1.19,4.74l2.69-.87a13.87,13.87,0,0,1,7.3-.45,3.73,3.73,0,0,1,3.1,3.22,14.56,14.56,0,0,1-.31,6.3c-1.1,4.36-2.29,8.69-3.46,13-1.26,4.73-2.83,9.38-3.31,14.3-0.61,6.27,2.2,11,8,13A38.58,38.58,0,0,0,296.41,465.32Z" transform="translate(-253.18 -376.06)"/><path d="M296.41,465.32a38.58,38.58,0,0,1-4.32-.94c-5.79-1.94-8.59-6.69-8-13,0.48-4.93,2-9.57,3.31-14.3,1.16-4.34,2.36-8.67,3.46-13a14.56,14.56,0,0,0,.31-6.3,3.73,3.73,0,0,0-3.1-3.22,13.87,13.87,0,0,0-7.3.45l-2.69.87c0.41-1.68.78-3.22,1.19-4.74a0.91,0.91,0,0,1,.51-0.51c4-1.52,7.91-3.21,12.14-4s8.28-.65,12.17,1.25a11.26,11.26,0,0,1,6,10.81c-0.24,6.11-2.37,11.74-3.87,17.54-1,3.82-2,7.62-3,11.45a13.48,13.48,0,0,0-.32,5.78c0.45,2.25,1.51,3.21,3.76,3.6a17.08,17.08,0,0,0,8.63-1.06l0.94-.34c-0.41,1.67-.77,3.24-1.18,4.8a0.83,0.83,0,0,1-.49.43c-3.15,1.17-6.28,2.41-9.47,3.46a36.37,36.37,0,0,1-4.59.91h-4.18Z" transform="translate(-253.18 -376.06)"/><path d="M307.92,376.06l1.41,0.35c6.23,1.45,9.88,8.1,7.45,13.82a10.39,10.39,0,0,1-8.55,6.48,11.11,11.11,0,0,1-11.11-4.49c-3.53-4.7-2-11.45,3.39-14.53a27.13,27.13,0,0,1,4.44-1.63h3Z" transform="translate(-253.18 -376.06)"/></svg>