<svg id="Capa_1" data-name="Capa 1" xmlns="http://www.w3.org/2000/svg" viewBox="0 0 512 512"><defs><style>.cls-1{fill:#fff;}</style></defs><title>lupa</title><path class="cls-1" d="M-579,342V315c0.28-1.28.59-2.56,0.85-3.85,3.11-15.61,4.45-31.83,9.61-46.72,25.62-73.93,76.91-120.25,153.13-138.49,10-2.38,20.27-3.33,30.41-4.94h27a30.87,30.87,0,0,0,3.87.82c45.28,3.81,85.27,20.45,119.34,50.43,42.16,37.11,66.2,83.82,70.49,140,3.19,41.8-6.32,81-27.25,117.41-4.25,7.39-3.91,9.78,2.05,15.75,31.58,31.59,63,63.32,94.82,94.67,12.77,12.59,24.22,25.68,27.68,44v12c-2.27,8.44-5.7,16.13-11.89,22.64A49.83,49.83,0,0,1-104,633h-12c-17.47-3.44-30.4-13.92-42.55-26.26-31.68-32.19-63.79-64-95.72-95.9-6.36-6.36-8.65-6.61-16.58-2.13-43.06,24.33-88.95,32.7-137.78,24.37C-489.55,519.33-557.26,454-574,373.47-576.14,363.1-577.35,352.53-579,342Zm361-13.19A153.38,153.38,0,0,0-371.31,175.19c-84.7,0-153.58,68.87-153.54,153.59A153.4,153.4,0,0,0-371.64,482.08,153.13,153.13,0,0,0-218,328.86Z" transform="translate(579 -121.05)"/><path class="cls-1" d="M-254.2,294.87c-0.59,9.76-6.65,17.83-15.9,20.59a21.32,21.32,0,0,1-24-9,46.25,46.25,0,0,1-2.75-5.31c-21-45.08-71.54-65.5-117.8-47.48-5.78,2.25-11.48,3.3-17.48,1.15a21.37,21.37,0,0,1-14.11-19.36c-0.28-9.56,4.68-17.4,14-20.93q76.11-29,139.44,22.37c15.9,12.89,27.5,29.31,35.67,48.07C-255.76,288.08-255.16,291.55-254.2,294.87Z" transform="translate(579 -121.05)"/></svg>