<svg id="Capa_1" data-name="Capa 1" xmlns="http://www.w3.org/2000/svg" viewBox="0 0 383.84 383.92"><defs><style>.cls-1 {fill: none;}</style></defs><title>medico</title><path class="cls-1" d="M106.78,613.64V229.72H490.63V613.64H106.78Zm91.56-163.28c-0.18.08-.75,0.29-1.28,0.58-36.33,19.24-58,61-52.69,101.84,2.32,17.82,11.62,30.23,29,36,12.84,4.27,26.17,5.33,39.55,5.37q79.29,0.26,158.59.21c14.87,0,29.74-.17,44.39-3.27,22.35-4.72,34.89-17.75,37.31-38.73a102.25,102.25,0,0,0-52.81-101.44c-0.94-.51-1.92-0.91-2.49-1.18,1.39,7.37,3.06,14.75,4,22.22,0.42,3.18,1.09,4.81,4.37,6.09,12.61,4.92,18.61,19.4,13.69,32a25,25,0,1,1-32.33-32.31c1.17-.48,3-1.74,2.93-2.53-0.72-10.69-2.45-21.15-9.59-29.76-1.3-1.57-3.07-3.25-4.93-3.76-4.78-1.3-9.72-2-14.79-2.93-1.93,8.49-7,14.64-12.37,20.58-14.53,16.14-31.34,29.73-48.34,43.11-1.82,1.43-2.9.61-4.16-.49-14.76-12.9-29.75-25.54-44.16-38.82-7.12-6.56-13.48-14.08-16.07-24.29-4.14.73-8.15,1.68-12.21,2.09-5.61.57-9,3.89-11.53,8.45-3.53,6.23-4.27,13.16-5.59,20-1.25,6.48,2.52,10.06,6.56,12.85A63.06,63.06,0,0,1,229,498.13c3.66,5.13,3.77,11.13,5.5,16.74a80.84,80.84,0,0,1,3.41,32.54c-0.57,5.48-2.67,10-8,12.69s-10.92,3.22-16.71,2.68a7.2,7.2,0,0,1,.35-14.38,78.56,78.56,0,0,1,9,0c2,0.14,2.74-.65,2.73-2.51-0.05-5.24.3-10.51-.21-15.7-1.23-12.52-8.44-22.14-16.53-31-4.73-5.16-10.07-5.25-14.7-.06-5.33,6-10.58,12.37-14.11,19.46-4.22,8.46-4.48,18.07-3.31,27.55,0.24,2,1.14,2.39,3,2.26a88.54,88.54,0,0,1,9-.09,7.32,7.32,0,0,1,7.42,7c0.12,4-3,7.22-7.3,7.46-2.62.15-5.36,0.52-7.85,0-9.59-2.18-15.08-4-16.85-14.6-2.42-14.49,1.37-28.38,5.41-41.88,3-9.85,9.91-17.7,18.82-23.61,2.91-1.93,6.11-5.12,6.85-8.28C196.78,466.6,197.28,458.48,198.34,450.36ZM333.71,379c16.48-15.94,32.84-31.74,49.12-47.61a4.61,4.61,0,0,0,1.1-3.23c-2.5-40.93-35.64-75.09-76.53-79a85.27,85.27,0,0,0-93.64,78.62A5.86,5.86,0,0,0,215.3,332q22.23,21.77,44.66,43.35c1.24,1.2,2.5,2.37,3.74,3.55C288.42,353.79,308.28,353.93,333.71,379Zm-77.52,8.62-40.93-39.55a8.53,8.53,0,0,0-.22,4.23,156.54,156.54,0,0,0,16.4,46.77c9,16.79,20.2,31.87,36.18,42.77,11.86,8.08,24.82,12.24,39.31,9.71,13.12-2.29,24-9,33.44-18.07,22.38-21.61,35.18-48.4,41.62-78.5,0.46-2.16.63-4.38,0.94-6.57l-0.8-.21-41.5,40.16a27.77,27.77,0,0,1,1.92,3.75c2,6,4,12,5.72,18.08a5.31,5.31,0,0,1-1.12,4A92.61,92.61,0,0,1,323,436c-16.57,10.17-33,9.87-49.35-.51-8.42-5.34-15.53-12.08-22.12-19.5-2.36-2.66-3.06-5.38-2.05-8.53C251.55,401,253.78,394.73,256.18,387.67ZM408.24,501.1A11.62,11.62,0,0,0,397,489.4a11.51,11.51,0,1,0-.35,23A11.56,11.56,0,0,0,408.24,501.1Z" transform="translate(-106.78 -229.72)"/><path d="M198.34,450.36c-1.06,8.12-1.56,16.24-3.4,24-0.75,3.16-3.94,6.35-6.85,8.28-8.91,5.9-15.86,13.76-18.82,23.61-4,13.5-7.83,27.39-5.41,41.88,1.77,10.57,7.27,12.42,16.85,14.6,2.49,0.57,5.23.19,7.85,0,4.34-.25,7.42-3.48,7.3-7.46a7.32,7.32,0,0,0-7.42-7,88.54,88.54,0,0,0-9,.09c-1.86.13-2.76-.28-3-2.26-1.17-9.48-.91-19.09,3.31-27.55,3.53-7.09,8.78-13.5,14.11-19.46,4.63-5.19,10-5.1,14.7.06,8.1,8.84,15.3,18.45,16.53,31,0.51,5.19.16,10.47,0.21,15.7,0,1.86-.69,2.65-2.73,2.51a78.56,78.56,0,0,0-9,0,7.2,7.2,0,0,0-.35,14.38c5.79,0.54,11.37,0,16.71-2.68s7.41-7.2,8-12.69a80.84,80.84,0,0,0-3.41-32.54c-1.73-5.62-1.85-11.61-5.5-16.74a63.06,63.06,0,0,0-15.62-15.9c-4-2.79-7.81-6.37-6.56-12.85,1.32-6.88,2.06-13.81,5.59-20,2.58-4.55,5.93-7.87,11.53-8.45,4.06-.42,8.07-1.36,12.21-2.09,2.59,10.21,8.95,17.73,16.07,24.29,14.41,13.28,29.4,25.92,44.16,38.82,1.26,1.1,2.35,1.92,4.16.49,17-13.38,33.81-27,48.34-43.11,5.35-5.94,10.44-12.09,12.37-20.58,5.07,1,10,1.63,14.79,2.93,1.86,0.51,3.63,2.19,4.93,3.76,7.14,8.61,8.86,19.07,9.59,29.76,0.05,0.79-1.75,2-2.93,2.53A24.94,24.94,0,1,0,420,510c4.93-12.55-1.07-27-13.69-32-3.28-1.28-3.95-2.91-4.37-6.09-1-7.47-2.66-14.85-4-22.22,0.57,0.27,1.56.67,2.49,1.18A102.25,102.25,0,0,1,453.2,552.37c-2.41,21-15,34-37.31,38.73-14.65,3.09-29.52,3.27-44.39,3.27q-79.29,0-158.59-.21c-13.39,0-26.71-1.1-39.55-5.37-17.38-5.78-26.67-18.19-29-36-5.31-40.84,16.35-82.6,52.69-101.84C197.59,450.65,198.16,450.44,198.34,450.36Zm163.74,84.56c0-4.63,0-9,0-13.32,0-2.81-1.12-4.12-4.05-4-3.49.15-7,.19-10.5,0s-4.81,1.05-4.65,4.53c0.19,4.19,0,8.4,0,12.8-4.78,0-9,.07-13.26,0-2.83-.07-4.15,1-4,4a93.73,93.73,0,0,1,0,10.49c-0.27,3.65,1.24,5,4.75,4.88,4.07-.14,8.16,0,12.58,0,0,4.33,0,8.18,0,12,0,4.84.35,5.19,5,5.22q4.5,0,9,0c4.63,0,5.07-.47,5.1-5.21,0-3.93,0-7.86,0-12,4.65,0,8.64-.1,12.63,0,3.28,0.1,4.89-1.1,4.71-4.59s-0.16-6.75,0-10.12-1.08-4.82-4.56-4.65C370.77,535.07,366.65,534.92,362.08,534.92Z" transform="translate(-106.78 -229.72)"/><path d="M333.71,379c-25.43-25.11-45.28-25.25-70-.18-1.24-1.18-2.51-2.35-3.74-3.55Q237.6,353.68,215.3,332a5.86,5.86,0,0,1-1.55-4.12,85.27,85.27,0,0,1,93.64-78.62c40.89,3.88,74,38,76.53,79a4.61,4.61,0,0,1-1.1,3.23C366.54,347.3,350.19,363.1,333.71,379Z" transform="translate(-106.78 -229.72)"/><path d="M256.18,387.67c-2.4,7.07-4.63,13.38-6.66,19.76-1,3.15-.31,5.87,2.05,8.53,6.59,7.42,13.7,14.16,22.12,19.5,16.37,10.38,32.79,10.68,49.35.51a92.61,92.61,0,0,0,24.09-21.7,5.31,5.31,0,0,0,1.12-4c-1.71-6.08-3.72-12.08-5.72-18.08a27.77,27.77,0,0,0-1.92-3.75l41.5-40.16,0.8,0.21c-0.31,2.19-.47,4.41-0.94,6.57-6.45,30.1-19.25,56.89-41.62,78.5C331,442.62,320,449.31,306.92,451.6c-14.48,2.53-27.45-1.63-39.31-9.71-16-10.9-27.15-26-36.18-42.77A156.54,156.54,0,0,1,215,352.35a8.53,8.53,0,0,1,.22-4.23Z" transform="translate(-106.78 -229.72)"/><path d="M408.24,501.1a11.56,11.56,0,0,1-11.57,11.31A11.51,11.51,0,1,1,408.24,501.1Z" transform="translate(-106.78 -229.72)"/><path class="cls-1" d="M362.08,534.92c4.57,0,8.69.15,12.78,0,3.49-.17,4.72,1.31,4.56,4.65s-0.17,6.76,0,10.12-1.43,4.69-4.71,4.59c-4-.12-8,0-12.63,0,0,4.17,0,8.11,0,12,0,4.74-.47,5.18-5.1,5.21q-4.5,0-9,0c-4.68,0-5-.38-5-5.22,0-3.85,0-7.7,0-12-4.42,0-8.5-.1-12.58,0-3.51.12-5-1.22-4.75-4.88a93.73,93.73,0,0,0,0-10.49c-0.11-2.95,1.21-4,4-4,4.24,0.1,8.48,0,13.26,0,0-4.4.15-8.61,0-12.8-0.16-3.47,1.27-4.72,4.65-4.53s7,0.16,10.5,0c2.94-.13,4.09,1.18,4.05,4C362,525.94,362.08,530.29,362.08,534.92Z" transform="translate(-106.78 -229.72)"/></svg>