<svg id="Capa_1" data-name="Capa 1" xmlns="http://www.w3.org/2000/svg" viewBox="0 0 384 383.91"><defs><style>.cls-1{fill:#fff;}</style></defs><title>oculto</title><path class="cls-1" d="M490.75,432.89v180.7h-384q0-90.4,0-180.7c1.49,3.67,2.58,7.57,4.54,11a243.15,243.15,0,0,0,37.44,49.47c7.36,7.43,15.2,14.4,23,21.72-0.71.75-1.52,1.65-2.38,2.51l-50.89,50.9c-0.8.8-1.62,1.56-2.37,2.4a13.24,13.24,0,0,0-2.82,13.94c1.74,5,5.42,8,10.68,8.85,5.65,1,9.78-1.65,13.6-5.47Q272.66,453,407.88,317.8q21.87-21.87,43.75-43.72c3.66-3.64,5.93-7.76,5.06-13a13,13,0,0,0-9.15-10.89c-5.47-1.81-10.34-.45-14.42,3.64C414.73,272.16,396.3,290.49,378,309c-2.32,2.35-4.07,2.56-7.06,1.38q-74.9-29.38-149.11,1.9c-36,15.22-65.43,39.17-89.45,69.76-10.14,12.91-20.55,25.82-25.68,41.87V229.69h384v194.2c-1.61-3.89-2.79-8-4.89-11.64A245.61,245.61,0,0,0,446.48,361c-7.17-7.09-14.84-13.68-22.34-20.56-1.33,1.26-2.16,2-2.94,2.79-12.9,12.9-25.74,25.85-38.75,38.64-2.09,2.05-2.15,3.5-.92,6,9.19,18.8,11.93,38.58,7.52,59-12.9,59.8-76.49,90.63-131.47,63.85-2-1-3.19-.87-4.8.76-9.9,10.07-19.93,20-29.9,30-0.67.67-1.26,1.41-1.87,2.09a3.14,3.14,0,0,0,.65.74c0.9,0.42,1.83.79,2.75,1.17,47.2,19.06,94.77,20.11,142.51,2.38,39.55-14.69,71.59-39.8,97.65-72.63C474.93,462.24,485.42,449.12,490.75,432.89ZM276.5,489c18.68,7.94,47.84,5.67,68.34-15.09,20.67-20.93,22.2-50.07,14.52-67.78Z" transform="translate(-106.75 -229.69)"/><path d="M106.75,423.89c5.13-16.06,15.54-29,25.68-41.87,24-30.59,53.46-54.54,89.45-69.76Q295.93,281,371,310.36c3,1.17,4.74,1,7.06-1.38,18.27-18.49,36.7-36.82,55.07-55.2,4.08-4.08,9-5.45,14.42-3.64A13,13,0,0,1,456.69,261c0.88,5.28-1.4,9.4-5.06,13q-21.93,21.81-43.75,43.72Q272.68,453,137.51,588.18c-3.82,3.82-7.95,6.43-13.6,5.47-5.25-.9-8.94-3.84-10.68-8.85a13.24,13.24,0,0,1,2.82-13.94c0.75-.84,1.58-1.6,2.37-2.4l50.89-50.9c0.86-.86,1.67-1.76,2.38-2.51-7.77-7.32-15.6-14.29-23-21.72a243.15,243.15,0,0,1-37.44-49.47c-2-3.39-3.05-7.3-4.54-11v-9Zm110,46.29c6.32-6.35,12.34-12.5,18.49-18.5a4.38,4.38,0,0,0,1.32-5.22,58.43,58.43,0,0,1-2.09-26.68c5.3-37.07,38.91-61.83,75.76-54.84,8.32,1.58,13.06-.19,17.95-6.12,3.66-4.45,8.14-8.22,12.38-12.42-31.56-16.82-76-14-106.75,16.46C203.34,393.08,199.58,437.69,216.79,470.18Z" transform="translate(-106.75 -229.69)"/><path d="M490.75,432.89c-5.33,16.23-15.82,29.35-26.18,42.4-26.06,32.84-58.1,57.94-97.65,72.63-47.74,17.73-95.31,16.68-142.51-2.38-0.92-.37-1.85-0.75-2.75-1.17a3.14,3.14,0,0,1-.65-0.74c0.61-.68,1.2-1.43,1.87-2.09,10-10,20-19.93,29.9-30,1.61-1.64,2.79-1.74,4.8-.76,55,26.78,118.57-4.05,131.47-63.85,4.41-20.46,1.68-40.24-7.52-59-1.24-2.53-1.17-4,.92-6,13-12.79,25.85-25.74,38.75-38.64,0.78-.78,1.61-1.53,2.94-2.79,7.5,6.87,15.17,13.46,22.34,20.56a245.61,245.61,0,0,1,39.38,51.25c2.1,3.6,3.28,7.75,4.89,11.64v9Z" transform="translate(-106.75 -229.69)"/><path d="M276.5,489l82.86-82.86c7.69,17.71,6.16,46.85-14.52,67.78C324.34,494.65,295.17,496.92,276.5,489Z" transform="translate(-106.75 -229.69)"/><path class="cls-1" d="M216.79,470.18c-17.21-32.49-13.45-77.1,17.06-107.31,30.75-30.44,75.19-33.28,106.75-16.46-4.24,4.2-8.72,8-12.38,12.42-4.89,5.93-9.63,7.7-17.95,6.12-36.85-7-70.46,17.77-75.76,54.84a58.43,58.43,0,0,0,2.09,26.68,4.38,4.38,0,0,1-1.32,5.22C229.13,457.68,223.11,463.83,216.79,470.18Z" transform="translate(-106.75 -229.69)"/></svg>