<svg id="Capa_1" data-name="Capa 1" xmlns="http://www.w3.org/2000/svg" viewBox="0 0 383.93 383.87"><defs><style>.cls-1 {fill: none;}</style></defs><title>paciente</title><path class="cls-1" d="M484.75,520.62H100.82V136.75H484.75V520.62ZM230.23,346c-2.35.29-4.57,0.47-6.77,0.84A102.19,102.19,0,0,0,138.33,459c1.92,18,11.16,30.66,28.69,36.61,12.94,4.4,26.39,5.45,39.9,5.5q79.29,0.27,158.57.21c14.87,0,29.74-.18,44.38-3.27,22.34-4.71,35.22-17.7,37.25-38.71,3.71-38.35-9.94-69.55-40.15-93.29-15.06-11.83-32.5-18.2-51.76-20.13-1.81,8-6.67,14-11.83,19.79-14.54,16.3-31.43,30-48.55,43.42-1.58,1.24-2.61,1.2-4.17,0-15.85-12.41-31.46-25.1-45.28-39.8C239,362.55,232.61,355.62,230.23,346Zm62.38-190.5c-5.69.71-11.44,1.08-17,2.19C233.29,166,203.71,206,207.71,248.75a145.33,145.33,0,0,0,11.65,44.71c9,20.76,21,39.51,39.36,53.34,11.95,9,25.17,14.13,40.51,12,14-1.94,25.47-8.77,35.24-18.41C359.71,315.51,373.85,285,377.6,250,383,199.36,343.34,155.76,292.61,155.48Z" transform="translate(-100.82 -136.75)"/><path d="M230.23,346c2.38,9.65,8.75,16.57,15.15,23.38,13.82,14.7,29.43,27.39,45.28,39.8,1.56,1.22,2.6,1.26,4.17,0,17.11-13.43,34-27.12,48.55-43.42,5.16-5.78,10-11.79,11.83-19.79,19.26,1.93,36.7,8.3,51.76,20.13,30.21,23.74,43.87,54.94,40.15,93.29-2,21-14.91,34-37.25,38.71-14.65,3.09-29.52,3.27-44.38,3.27q-79.29,0-158.57-.21c-13.51,0-27-1.1-39.9-5.5-17.53-6-26.77-18.62-28.69-36.61a102.19,102.19,0,0,1,85.14-112.22C225.66,346.45,227.89,346.26,230.23,346Zm150.28,105c5.16,0,9.88,0,14.61,0s5.07-.46,5.09-5.23c0-4-.13-8,0-12,0.14-3.37-1.17-4.78-4.59-4.67-4.95.16-9.91,0-15.14,0,0-5.21,0-9.93,0-14.66s-0.52-5.08-5.24-5.11c-4,0-8,.12-12,0-3.37-.14-4.77,1.2-4.66,4.61,0.16,5,0,9.91,0,15.19-5.59,0-10.69.06-15.78,0-2.87,0-4.1,1.26-4.07,4.07,0,4.25,0,8.5,0,12.75s0.66,5,5,5.06c4.83,0,9.66,0,14.89,0,0,5.41.1,10.38,0,15.35-0.09,3.23,1.29,4.53,4.47,4.45,4.25-.11,8.5-0.12,12.75,0,3.29,0.1,4.84-1.15,4.73-4.6C380.39,461.28,380.51,456.41,380.51,450.95Z" transform="translate(-100.82 -136.75)"/><path d="M292.61,155.48c50.72,0.28,90.41,43.89,85,94.51-3.75,35-17.89,65.52-43.13,90.4-9.77,9.63-21.28,16.46-35.24,18.41-15.34,2.13-28.57-3-40.51-12-18.4-13.83-30.33-32.58-39.36-53.34a145.33,145.33,0,0,1-11.65-44.71c-4-42.78,25.58-82.71,67.86-91.08C281.17,156.55,286.92,156.19,292.61,155.48Z" transform="translate(-100.82 -136.75)"/><path class="cls-1" d="M380.51,450.95c0,5.46-.11,10.33,0,15.2,0.11,3.46-1.44,4.7-4.73,4.6-4.25-.12-8.5-0.12-12.75,0-3.18.08-4.55-1.22-4.47-4.45,0.13-5,0-9.93,0-15.35-5.22,0-10.05,0-14.89,0-4.29,0-4.93-.67-5-5.06s0-8.5,0-12.75c0-2.81,1.2-4.12,4.07-4.07,5.1,0.08,10.2,0,15.78,0,0-5.29.12-10.24,0-15.19-0.11-3.41,1.29-4.75,4.66-4.61,4,0.16,8,0,12,0,4.73,0,5.22.5,5.24,5.11s0,9.45,0,14.66c5.24,0,10.19.12,15.14,0,3.42-.11,4.74,1.3,4.59,4.67-0.17,4,0,8,0,12,0,4.77-.44,5.21-5.09,5.23S385.67,450.95,380.51,450.95Z" transform="translate(-100.82 -136.75)"/></svg>