<svg xmlns="http://www.w3.org/2000/svg" xmlns:xlink="http://www.w3.org/1999/xlink" width="500" zoomAndPan="magnify" viewBox="0 0 375 374.999991" height="500" preserveAspectRatio="xMidYMid meet" version="1.0"><defs><clipPath id="7f736e4b59"><path d="M 23.4375 0 L 351.9375 0 L 351.9375 282 L 23.4375 282 Z M 23.4375 0 " clip-rule="nonzero"/></clipPath></defs><g clip-path="url(#7f736e4b59)"><path fill="#ffffff" d="M 316.742188 70.3125 L 281.542969 70.3125 L 281.542969 11.71875 C 281.542969 5.238281 276.289062 0 269.8125 0 L 105.5625 0 C 99.085938 0 93.832031 5.238281 93.832031 11.71875 L 93.832031 70.3125 L 58.632812 70.3125 C 39.230469 70.3125 23.4375 86.085938 23.4375 105.46875 L 23.4375 246.09375 C 23.4375 265.476562 39.230469 281.25 58.632812 281.25 L 70.367188 281.25 L 70.367188 257.8125 L 58.632812 257.8125 C 52.167969 257.8125 46.902344 252.5625 46.902344 246.09375 L 46.902344 105.46875 C 46.902344 99 52.167969 93.75 58.632812 93.75 L 316.742188 93.75 C 323.207031 93.75 328.472656 99 328.472656 105.46875 L 328.472656 246.09375 C 328.472656 252.5625 323.207031 257.8125 316.742188 257.8125 L 305.007812 257.8125 L 305.007812 281.25 L 316.742188 281.25 C 336.144531 281.25 351.9375 265.476562 351.9375 246.09375 L 351.9375 105.46875 C 351.9375 86.085938 336.144531 70.3125 316.742188 70.3125 Z M 117.292969 70.3125 L 117.292969 23.4375 L 258.082031 23.4375 L 258.082031 70.3125 Z M 117.292969 70.3125 " fill-opacity="1" fill-rule="nonzero"/></g><path fill="#ffffff" d="M 305.007812 234.375 L 305.007812 210.9375 L 70.367188 210.9375 L 70.367188 234.375 L 93.832031 234.375 L 93.832031 363.28125 C 93.832031 369.761719 99.085938 375 105.5625 375 L 269.8125 375 C 276.289062 375 281.542969 369.761719 281.542969 363.28125 L 281.542969 234.375 Z M 258.082031 351.5625 L 117.292969 351.5625 L 117.292969 234.375 L 258.082031 234.375 Z M 258.082031 351.5625 " fill-opacity="1" fill-rule="nonzero"/><path fill="#ffffff" d="M 281.542969 117.1875 L 305.007812 117.1875 L 305.007812 140.625 L 281.542969 140.625 Z M 281.542969 117.1875 " fill-opacity="1" fill-rule="nonzero"/><path fill="#ffffff" d="M 140.757812 257.8125 L 234.617188 257.8125 L 234.617188 281.25 L 140.757812 281.25 Z M 140.757812 257.8125 " fill-opacity="1" fill-rule="nonzero"/><path fill="#ffffff" d="M 140.757812 304.6875 L 234.617188 304.6875 L 234.617188 328.125 L 140.757812 328.125 Z M 140.757812 304.6875 " fill-opacity="1" fill-rule="nonzero"/></svg>