<svg xmlns="http://www.w3.org/2000/svg" xmlns:xlink="http://www.w3.org/1999/xlink" width="500" zoomAndPan="magnify" viewBox="0 0 375 374.999991" height="500" preserveAspectRatio="xMidYMid meet" version="1.0"><defs><clipPath id="a2ec5ead4a"><path d="M 51.136719 59 L 324.136719 59 L 324.136719 375 L 51.136719 375 Z M 51.136719 59 " clip-rule="nonzero"/></clipPath></defs><g clip-path="url(#a2ec5ead4a)"><path fill="#ffffff" d="M 51.136719 76.707031 C 51.136719 67.292969 58.777344 59.664062 68.199219 59.664062 L 127.917969 59.664062 L 127.917969 93.753906 L 85.261719 93.753906 L 85.261719 340.902344 L 290.011719 340.902344 L 290.011719 93.753906 L 247.355469 93.753906 L 247.355469 59.664062 L 307.074219 59.664062 C 316.496094 59.664062 324.136719 67.292969 324.136719 76.707031 L 324.136719 357.949219 C 324.136719 367.363281 316.496094 374.992188 307.074219 374.992188 L 68.199219 374.992188 C 58.777344 374.992188 51.136719 367.363281 51.136719 357.949219 Z M 51.136719 76.707031 " fill-opacity="1" fill-rule="evenodd"/></g><path fill="#ffffff" d="M 187.636719 34.09375 C 182.925781 34.09375 179.105469 37.910156 179.105469 42.617188 L 179.105469 51.140625 C 179.105469 60.554688 171.464844 68.183594 162.042969 68.183594 L 144.980469 68.183594 L 144.980469 85.230469 L 230.292969 85.230469 L 230.292969 68.183594 L 213.230469 68.183594 C 203.804688 68.183594 196.167969 60.554688 196.167969 51.140625 L 196.167969 42.617188 C 196.167969 37.910156 192.347656 34.09375 187.636719 34.09375 Z M 229.441406 34.09375 C 225.488281 14.644531 208.273438 0.00390625 187.636719 0.00390625 C 167 0.00390625 149.785156 14.644531 145.832031 34.09375 L 127.917969 34.09375 C 118.496094 34.09375 110.855469 41.726562 110.855469 51.140625 L 110.855469 102.273438 C 110.855469 111.6875 118.496094 119.320312 127.917969 119.320312 L 247.355469 119.320312 C 256.777344 119.320312 264.417969 111.6875 264.417969 102.273438 L 264.417969 51.140625 C 264.417969 41.726562 256.777344 34.09375 247.355469 34.09375 Z M 229.441406 34.09375 " fill-opacity="1" fill-rule="evenodd"/><path fill="#ffffff" d="M 154.199219 136.378906 C 161.554688 136.675781 167.894531 141.652344 169.917969 148.726562 L 191.992188 225.910156 L 215.03125 179.878906 C 217.921875 174.101562 223.828125 170.453125 230.292969 170.453125 C 236.757812 170.453125 242.664062 174.101562 245.554688 179.878906 L 257.898438 204.542969 L 272.949219 204.542969 L 272.949219 238.632812 L 247.355469 238.632812 C 240.890625 238.632812 234.984375 234.988281 232.09375 229.210938 L 230.292969 225.613281 L 202.898438 280.347656 C 199.75 286.636719 193.0625 290.347656 186.058594 289.695312 C 179.050781 289.046875 173.164062 284.164062 171.230469 277.40625 L 151.320312 207.792969 L 143.894531 227.574219 C 141.394531 234.226562 135.03125 238.632812 127.917969 238.632812 L 102.324219 238.632812 L 102.324219 204.542969 L 116.09375 204.542969 L 137.535156 147.425781 C 140.121094 140.535156 146.839844 136.082031 154.199219 136.378906 Z M 154.199219 136.378906 " fill-opacity="1" fill-rule="evenodd"/></svg>