<svg id="Capa_1" data-name="Capa 1" xmlns="http://www.w3.org/2000/svg" viewBox="0 0 507.09 512"><defs><style>.cls-1{fill:#fff;}</style></defs><title>refresh</title><path class="cls-1" d="M65.84,227.93C81.29,122.95,178.92,50.36,283.9,65.81a192.13,192.13,0,0,1,96.93,44.09l-24.77,24.77a21.26,21.26,0,0,0,15,36.29h97.49a21.26,21.26,0,0,0,21.26-21.26V52.21a21.26,21.26,0,0,0-36.29-15L425.92,64.81C320.53-29.13,158.94-19.85,65,85.53A255.63,255.63,0,0,0,2.87,218.64,32.19,32.19,0,0,0,34.25,256,32.21,32.21,0,0,0,65.84,227.93Z" transform="translate(-2.45 0)"/><path class="cls-1" d="M477.74,256A32.21,32.21,0,0,0,446.15,284C430.71,389,333.08,461.61,228.1,446.16a192.13,192.13,0,0,1-96.93-44.09l24.77-24.77a21.26,21.26,0,0,0-15-36.29H43.41a21.26,21.26,0,0,0-21.26,21.26v97.49a21.26,21.26,0,0,0,36.29,15l27.64-27.64c105.36,94,266.94,84.71,360.9-20.66a255.6,255.6,0,0,0,62.14-133.15A32.19,32.19,0,0,0,477.74,256Z" transform="translate(-2.45 0)"/></svg>