<svg id="Capa_1" data-name="Capa 1" xmlns="http://www.w3.org/2000/svg" viewBox="0 0 383.92 383.85"><defs><style>.cls-1{fill: none;}</style></defs><title>reportes</title><path class="cls-1" d="M490.75,613.61H106.83V229.76H490.75V613.61ZM249.6,306.46c7.5,7.22,14.7,14.15,21.88,21.08q33.18,32,66.32,64.1c3.59,3.48,7.47,5.63,12.65,5.36,4.78-.25,8.1-2.8,11.19-6.07q38.25-40.46,76.53-80.9c1.1-1.16,2-2.53,3-3.91,3.06,2.55,5.34,4.69,7.88,6.49a30.55,30.55,0,0,0,7.11,4,13.94,13.94,0,0,0,18.88-11.36c2.29-16.32,4.9-32.64,6.21-49.05,1-12.31-6.18-20.22-19.16-17.16q-22.23,5.24-44.56,10c-6.68,1.42-11.13,5.1-12.85,11.59s0.66,11.76,5.73,15.95c2.65,2.19,5.25,4.44,8.06,6.82L347.93,357.1l-4.1-3.86-82.75-78.39c-7.16-6.79-15.18-7.15-22-.83q-50.28,46.41-100.49,92.91c-7.13,6.6-7.58,17.16-1.25,23.78s15.08,6.32,22.57-.65q27-25.17,54-50.36ZM414,494q0,48.36,0,96.71c0,9.2,5.3,15.09,13.91,15.2q19.86,0.24,39.73,0a15.85,15.85,0,0,0,15.47-15.62q0-96.72,0-193.43c0-9.59-5.54-15.11-15.13-15.15-12.25-.05-24.51.41-36.73-0.14-11.57-.51-17.54,6.2-17.4,17.2C414.26,430.56,414,462.31,414,494ZM283.4,524c0-20.87-.35-41.74.13-62.59,0.27-12-5.16-19-18.16-18.35-11.72.55-23.48,0.07-35.23,0.13a15.69,15.69,0,0,0-15.92,15.84q0,64.84,0,129.69c0,11,4.79,15.72,15.81,15.75q18.37,0,36.73,0c11.53,0,16.63-5.14,16.63-16.75Q283.42,555.89,283.4,524Zm30.7,8.24q0,28.87,0,57.74c0,10.64,5.34,16,15.85,16q18.75,0,37.5,0c10.26,0,15.81-5.48,15.82-15.69q0-58.12,0-116.24c0-10-5.56-15.59-15.52-15.61-12.37,0-24.75,0-37.12,0-11.36,0-16.52,5.12-16.53,16.45Q314.08,503.58,314.1,532.27ZM183.5,557c0-11.25,0-22.49,0-33.74,0-10.27-5.22-15.51-15.41-15.54q-19.12-.06-38.23,0c-10.1,0-15.47,5.44-15.48,15.56q0,33.55,0,67.1c0,10,5.57,15.61,15.49,15.63q19.12,0,38.23,0c9.84,0,15.33-5.45,15.38-15.27C183.54,579.48,183.5,568.24,183.5,557Z" transform="translate(-106.83 -229.76)"/><path d="M249.6,306.46L213.91,339.7q-27,25.18-54,50.36c-7.49,7-16.29,7.21-22.57.65s-5.88-17.18,1.25-23.78Q188.75,320.42,239,274c6.85-6.32,14.87-6,22,.83l82.75,78.39,4.1,3.86,70.58-73.66c-2.81-2.38-5.41-4.63-8.06-6.82-5.07-4.19-7.45-9.49-5.73-15.95s6.17-10.16,12.85-11.59q22.33-4.76,44.56-10c13-3.06,20.14,4.85,19.16,17.16-1.31,16.41-3.92,32.73-6.21,49.05a13.94,13.94,0,0,1-18.88,11.36,30.55,30.55,0,0,1-7.11-4c-2.53-1.79-4.82-3.94-7.88-6.49-1.07,1.38-1.95,2.75-3,3.91q-38.25,40.46-76.53,80.9c-3.09,3.26-6.4,5.81-11.19,6.07-5.17.27-9.06-1.88-12.65-5.36q-33.1-32.12-66.32-64.1C264.3,320.6,257.1,313.68,249.6,306.46Z" transform="translate(-106.83 -229.76)"/><path d="M414,494c0-31.74.25-63.48-.14-95.21-0.14-11,5.83-17.71,17.4-17.2,12.22,0.54,24.49.08,36.73,0.14,9.58,0,15.12,5.55,15.13,15.15q0,96.72,0,193.43A15.85,15.85,0,0,1,467.66,606q-19.87.22-39.73,0c-8.6-.1-13.9-6-13.91-15.2Q414,542.4,414,494Z" transform="translate(-106.83 -229.76)"/><path d="M283.4,524q0,31.86,0,63.72c0,11.62-5.11,16.74-16.63,16.75q-18.37,0-36.73,0c-11,0-15.81-4.78-15.81-15.75q0-64.84,0-129.69a15.69,15.69,0,0,1,15.92-15.84c11.74-.07,23.51.42,35.23-0.13,13-.61,18.44,6.36,18.16,18.35C283.06,482.29,283.4,503.16,283.4,524Z" transform="translate(-106.83 -229.76)"/><path d="M314.1,532.27q0-28.68,0-57.37c0-11.33,5.16-16.44,16.53-16.45,12.37,0,24.75,0,37.12,0,10,0,15.52,5.57,15.52,15.61q0,58.12,0,116.24c0,10.22-5.56,15.68-15.82,15.69q-18.75,0-37.5,0c-10.52,0-15.84-5.35-15.85-16Q314.06,561.14,314.1,532.27Z" transform="translate(-106.83 -229.76)"/><path d="M183.5,557c0,11.25,0,22.49,0,33.74,0,9.82-5.54,15.25-15.38,15.27q-19.12,0-38.23,0c-9.93,0-15.48-5.62-15.49-15.63q0-33.55,0-67.1c0-10.12,5.38-15.52,15.48-15.56q19.12-.07,38.23,0c10.19,0,15.37,5.27,15.41,15.54C183.53,534.5,183.5,545.75,183.5,557Z" transform="translate(-106.83 -229.76)"/></svg>