<svg id="Capa_1" data-name="Capa 1" xmlns="http://www.w3.org/2000/svg" viewBox="0 0 384 384"><defs><style>.cls-1{fill:#fff;}</style></defs><title>salvar</title><path class="cls-1" d="M-491.2,576.95q0-156,0-312a9.17,9.17,0,0,0,.66-1.68c2.39-12.92,9.28-22.77,20.76-29,4.49-2.44,9.69-3.58,14.57-5.32h267c2.68,2,5.65,3.65,8,6q33.64,33.41,67.05,67.05c2.32,2.33,4,5.31,6,8v267a16.77,16.77,0,0,0-.71,2c-3.44,16.11-13,26.77-28.54,32.11-2.2.76-4.5,1.24-6.75,1.85h-312a9.13,9.13,0,0,0-1.67-.67c-12.9-2.42-22.77-9.28-29-20.76C-488.32,587-489.46,581.82-491.2,576.95Zm287.58-325c0,1.47,0,2.95,0,4.43,0,28.25.1,56.49,0,84.74-0.12,25.28-17.84,42.94-43,43-43.12.06-86.24,0.16-129.36-.15a46.24,46.24,0,0,1-18.14-3.69c-16.71-7.5-24.69-21.16-24.75-39.36-0.09-28.25,0-56.49,0-84.74,0-1.45,0-2.9,0-4.66-10.46,0-20.44-.06-30.41,0-11.26.08-19.32,8.16-19.32,19.49q0,150,0,300c0,11.33,8.06,19.41,19.32,19.5,9.12,0.08,18.25,0,27.37,0,1,0,1.91-.17,3-0.27,0-1.89,0-3.5,0-5.12,0-36-.06-72,0-108,0.05-25.09,17.76-43.22,42.4-43.27q77.43-.14,154.86.12a43.91,43.91,0,0,1,17.06,3.47c17.09,7.54,25.11,21.37,25.15,39.86q0.1,54,0,108c0,1.6,0,3.19,0,5.22h4q12.56,0,25.12,0c13,0,20.64-7.76,20.64-20.84q0-124.49.06-249a7.92,7.92,0,0,0-2.65-6.16c-19.59-19.47-39.21-38.92-58.54-58.65C-194.48,252.1-198.08,250.54-203.62,251.9ZM-202,590.27c0-1.51,0-2.85,0-4.2q0-54.16,0-108.32c0-14-7.57-21.5-21.55-21.5H-374.93c-14,0-21.51,7.53-21.52,21.53q0,54.16,0,108.32v4.16H-202Zm-24.16-338.56H-396.45c0,1.48,0,2.71,0,3.94q0,42.18,0,84.36c0,14,7.57,21.54,21.55,21.54h127.11c14.28,0,21.66-7.39,21.67-21.74q0-42,0-84v-4.12Z" transform="translate(491.2 -228.94)"/><path class="cls-1" d="M-251.86,306.57c0,5.87.06,11.74,0,17.61-0.09,6.57-4.63,11.34-10.82,11.53a11.09,11.09,0,0,1-11.59-11.2q-0.26-18,0-36a11.39,11.39,0,0,1,11.45-11.44c6.28,0.16,10.9,5.09,11,11.85C-251.8,294.83-251.86,300.7-251.86,306.57Z" transform="translate(491.2 -228.94)"/></svg>