<svg id="Capa_1" data-name="Capa 1" xmlns="http://www.w3.org/2000/svg" viewBox="0 0 384 383.91"><defs><style>.cls-1{fill:#fff;}</style></defs><title>visible</title><path d="M490.75,417.14v9c-1.42,3.56-2.42,7.38-4.34,10.65-19.84,33.81-45.29,62.58-78.53,83.66-59.7,37.85-122.57,44.22-188,16.36-35.09-14.94-63.7-38.69-87.2-68.53-10.24-13-20.72-26-25.94-42.15v-9c1.43-3.57,2.42-7.39,4.35-10.67,22.91-38.9,53-70.72,93-92.27,50.26-27.07,102.79-32.41,157.14-14.14,42.22,14.19,76.11,40.3,103.57,74.93C475.1,388,485.54,401,490.75,417.14ZM391,421.55a92.25,92.25,0,1,0-92.26,92.34A92.37,92.37,0,0,0,391,421.55Z" transform="translate(-106.75 -229.69)"/><path class="cls-1" d="M106.75,426.14c5.22,16.16,15.7,29.15,25.94,42.15,23.5,29.84,52.11,53.59,87.2,68.53,65.41,27.85,128.28,21.49,188-16.36,33.24-21.08,58.69-49.84,78.53-83.66,1.92-3.27,2.91-7.09,4.34-10.65V613.59h-384V426.14Z" transform="translate(-106.75 -229.69)"/><path class="cls-1" d="M490.75,417.14C485.54,401,475.1,388,464.82,375c-27.46-34.63-61.35-60.74-103.57-74.93-54.35-18.27-106.88-12.94-157.14,14.14-40,21.55-70.11,53.37-93,92.27-1.93,3.27-2.92,7.1-4.35,10.67q0-93.7,0-187.45h384V417.14Z" transform="translate(-106.75 -229.69)"/><path class="cls-1" d="M391,421.55a92.25,92.25,0,1,1-92.43-92.16A92.39,92.39,0,0,1,391,421.55Zm-157-.07a64.76,64.76,0,1,0,65-64.59A64.69,64.69,0,0,0,234,421.48Z" transform="translate(-106.75 -229.69)"/><path d="M234,421.48a64.76,64.76,0,1,1,64.7,64.91A64.66,64.66,0,0,1,234,421.48Z" transform="translate(-106.75 -229.69)"/></svg>