<svg id="Capa_1" data-name="Capa 1" xmlns="http://www.w3.org/2000/svg" viewBox="0 0 410.4 410.3"><defs><style>.cls-1{fill:#fff;}</style></defs><title>x</title><path class="cls-1" d="M483.4,216.69h20.79q0,205.1,0,410.3H93.8v-20.7C96,613,99.15,619,105.51,622.77c10.33,6.1,21.64,4.2,31.16-5.32L295,459.11c1.11-1.11,2.26-2.17,4-3.82,1.15,1.41,2.06,2.72,3.17,3.84q78.74,78.77,157.52,157.51a56.87,56.87,0,0,0,5,4.57,24,24,0,0,0,35.31-6.93c5.88-10.31,3.95-21.42-5.45-30.82q-79.16-79.2-158.37-158.35a30.81,30.81,0,0,0-4.09-2.91c1.9-2,3-3.15,4.08-4.26Q415,339.17,493.71,260.4a46.27,46.27,0,0,0,4.57-5c5.83-7.88,6.68-16.34,2.53-25.22C497.33,222.73,490.85,219.06,483.4,216.69Z" transform="translate(-93.8 -216.69)"/><path d="M483.4,216.69c7.45,2.37,13.93,6,17.41,13.48,4.15,8.88,3.31,17.34-2.53,25.22a46.27,46.27,0,0,1-4.57,5Q415,339.18,336.22,417.94c-1.11,1.11-2.18,2.27-4.08,4.26a30.81,30.81,0,0,1,4.09,2.91q79.22,79.14,158.37,158.35c9.4,9.4,11.33,20.51,5.45,30.82a24,24,0,0,1-35.31,6.93,56.87,56.87,0,0,1-5-4.57Q380.95,537.9,302.2,459.13c-1.11-1.11-2-2.43-3.17-3.84-1.72,1.65-2.88,2.71-4,3.82L136.67,617.46c-9.52,9.52-20.83,11.42-31.16,5.32C99.15,619,96,613,93.8,606.29v-8c1.87-7.57,6.85-13,12.2-18.32q77.56-77.38,155-154.89a26.69,26.69,0,0,1,3.92-2.74v-1.72a26.87,26.87,0,0,1-3.92-2.74Q183.48,340.46,106,263c-5.35-5.33-10.35-10.73-12.2-18.31v-8c0.76-2,1.44-4,2.29-5.87,3.44-7.78,10-11.69,17.71-14.13h8c7.57,1.87,13,6.85,18.31,12.19q77.38,77.56,154.89,155c1.11,1.11,1.83,2.6,3.3,4.74,1.88-2.31,2.78-3.64,3.89-4.75q77.45-77.49,154.9-155c5.33-5.35,10.74-10.32,18.31-12.19h8Z" transform="translate(-93.8 -216.69)"/><path class="cls-1" d="M475.4,216.69c-7.57,1.87-13,6.84-18.31,12.19q-77.38,77.56-154.9,155c-1.11,1.11-2,2.44-3.89,4.75-1.47-2.13-2.19-3.63-3.3-4.74q-77.43-77.51-154.89-155c-5.33-5.35-10.74-10.32-18.31-12.19H475.4Z" transform="translate(-93.8 -216.69)"/><path class="cls-1" d="M93.8,244.69c1.85,7.59,6.85,13,12.2,18.31q77.55,77.38,155,154.89a26.87,26.87,0,0,0,3.92,2.74v1.72a26.69,26.69,0,0,0-3.92,2.74Q183.48,502.52,106,580c-5.35,5.34-10.33,10.75-12.2,18.32V244.69Z" transform="translate(-93.8 -216.69)"/><path class="cls-1" d="M113.8,216.69c-7.72,2.44-14.27,6.35-17.71,14.13-0.85,1.92-1.53,3.91-2.29,5.87v-20h20Z" transform="translate(-93.8 -216.69)"/></svg>