<svg id="Capa_1" data-name="Capa 1" xmlns="http://www.w3.org/2000/svg" viewBox="0 0 409.6 409.59"><defs><style>.cls-1{fill:#fff;}</style></defs><title>xw</title><path class="cls-1" d="M-103.69,172.47c7.45,2.37,13.93,6,17.41,13.48,4.15,8.88,3.31,17.34-2.53,25.22a46.27,46.27,0,0,1-4.57,5Q-172.12,295-250.87,373.72C-252,374.83-253,376-254.95,378a30.81,30.81,0,0,1,4.09,2.91Q-171.64,460-92.49,539.24c9.4,9.4,11.33,20.51,5.45,30.82A24,24,0,0,1-122.35,577a56.87,56.87,0,0,1-5-4.57q-78.78-78.73-157.52-157.51c-1.11-1.11-2-2.43-3.17-3.84-1.72,1.65-2.88,2.71-4,3.82L-450.42,573.23c-9.52,9.52-20.83,11.42-31.16,5.32-6.36-3.76-9.54-9.75-11.71-16.48v-8c1.87-7.57,6.85-13,12.2-18.32q77.56-77.38,155-154.89a26.69,26.69,0,0,1,3.92-2.74v-1.72a26.87,26.87,0,0,1-3.92-2.74q-77.51-77.43-155-154.89c-5.35-5.33-10.35-10.73-12.2-18.31v-8c0.76-2,1.44-4,2.29-5.87,3.44-7.78,10-11.69,17.71-14.13h8c7.57,1.87,13,6.85,18.31,12.19q77.38,77.56,154.89,155c1.11,1.11,1.83,2.6,3.3,4.74,1.88-2.31,2.78-3.64,3.89-4.75q77.45-77.49,154.9-155c5.33-5.35,10.74-10.32,18.31-12.19h8Z" transform="translate(493.29 -172.47)"/></svg>